<svg width="395" height="270" version="1.1" viewBox="0 0 395 270" xmlns="http://www.w3.org/2000/svg">
 <rect width="395" height="270" style="fill:#fff"/>
 <path d="m9.9339 10h375.13v250h-375.13z" fill="#254aa5" style="stroke-width:1.3228"/>
 <g transform="matrix(.99231 0 0 .99231 9.985 9.7668)" fill="#fff200">
  <path transform="matrix(1.333,0,0,-1.333,181,55)" d="m0 0 6 4.4 6-4.4-2.3 7 6 4.4h-7.3l-2.4 7.2-2.3-7.2h-7.5l6-4.3z"/>
  <path transform="matrix(1.333,0,0,-1.333,139.7,66)" d="m0 0 6 4.4 6-4.4-2.3 7 6 4.4h-7.3l-2.4 7.2-2.3-7.2h-7.5l6-4.3z"/>
  <path transform="matrix(1.333,0,0,-1.333,117.5,71.5)" d="m0 0-2.3-7.2h-7.5l6-4.3-2.2-7 6 4.3 6-4.4-2.3 7 6 4.4h-7.3z"/>
  <path transform="matrix(1.333,0,0,-1.333,106.4,131.7)" d="m0 0 6-4.4-2.3 7 6 4.5h-7.3l-2.4 7.1-2.3-7.2h-7.5l6-4.3-2.2-7z"/>
  <path transform="matrix(1.333,0,0,-1.333,120.5,163.7)" d="m0 0-2.3 7.2-2.3-7.2h-7.4l6-4.4-2.3-7 6 4.3 6-4.3-2.3 7 6 4.4z"/>
  <path transform="matrix(1.333,0,0,-1.333,150.8,194)" d="m0 0-2.3 7.1-2.3-7.1h-7.4l6-4.4-2.3-7 6 4.3 6-4.3-2.3 7 6 4.4z"/>
  <path transform="matrix(1.333,0,0,-1.333,192,205)" d="m0 0-2.3 7.2-2.3-7.2h-7.4l6-4.4-2.3-7 6 4.3 6-4.3-2.3 7 6 4.4z"/>
  <path transform="matrix(1.333,0,0,-1.333,233.3,194)" d="m0 0-2.3 7.1-2.3-7.1h-7.4l6-4.4-2.3-7 6 4.3 6-4.3-2.3 7 6 4.4z"/>
  <path transform="matrix(1.333,0,0,-1.333,263.6,163.7)" d="m0 0-2.3 7.2-2.3-7.2h-7.4l6-4.4-2.3-7 6 4.3 6-4.3-2.3 7 6 4.4z"/>
  <path transform="matrix(1.333,0,0,-1.333,284.5,122.2)" d="m0 0h-7.5l-2.3 7.2-2.2-7.2h-7.5l6.1-4.4-2.3-7 6 4.3 6-4.3-2.3 7z"/>
  <path transform="matrix(1.333,0,0,-1.333,252.5,96.2)" d="m0 0 6 4.4 6-4.4-2.3 7 6 4.4h-7.3l-2.4 7.2-2.3-7.2h-7.5l6-4.3z"/>
  <path transform="matrix(1.333,0,0,-1.333,230.4,41.2)" d="m0 0-2.3-7.2h-7.5l6-4.3-2.2-7 6 4.3 6-4.4-2.3 7 6 4.5h-7.3z"/>
 </g>
</svg>
