<?xml version="1.0" encoding="UTF-8"?>
<svg version="1.1" viewBox="0 0 378.1 252.1" xmlns="http://www.w3.org/2000/svg">
 <path transform="matrix(1.333 0 0 -1.333 -206 673.4)" d="M154.5 505h283.6V316H154.5Z" fill="#254aa5"/>
 <g fill="#fff200">
  <path transform="matrix(1.333 0 0 -1.333 181 55)" d="m0 0 6 4.4L12 0 9.7 7l6 4.4H8.4L6 18.6l-2.3-7.2h-7.5l6-4.3Z"/>
  <path transform="matrix(1.333 0 0 -1.333 139.7 66)" d="m0 0 6 4.4L12 0 9.7 7l6 4.4H8.4L6 18.6l-2.3-7.2h-7.5l6-4.3Z"/>
  <path transform="matrix(1.333 0 0 -1.333 117.5 71.5)" d="m0 0-2.3-7.2h-7.5l6-4.3-2.2-7 6 4.3 6-4.4-2.3 7 6 4.4H2.4Z"/>
  <path transform="matrix(1.333 0 0 -1.333 106.4 131.7)" d="m0 0 6-4.4-2.3 7 6 4.5H2.4L0 14.2-2.3 7h-7.5l6-4.3-2.2-7Z"/>
  <path transform="matrix(1.333 0 0 -1.333 120.5 163.7)" d="m0 0-2.3 7.2L-4.6 0H-12l6-4.4-2.3-7 6 4.3 6-4.3-2.3 7 6 4.4Z"/>
  <path transform="matrix(1.333 0 0 -1.333 150.8 194)" d="m0 0-2.3 7.1L-4.6 0H-12l6-4.4-2.3-7 6 4.3 6-4.3-2.3 7 6 4.4Z"/>
  <path transform="matrix(1.333 0 0 -1.333 192 205)" d="m0 0-2.3 7.2L-4.6 0H-12l6-4.4-2.3-7 6 4.3 6-4.3-2.3 7 6 4.4Z"/>
  <path transform="matrix(1.333 0 0 -1.333 233.3 194)" d="m0 0-2.3 7.1L-4.6 0H-12l6-4.4-2.3-7 6 4.3 6-4.3-2.3 7 6 4.4Z"/>
  <path transform="matrix(1.333 0 0 -1.333 263.6 163.7)" d="m0 0-2.3 7.2L-4.6 0H-12l6-4.4-2.3-7 6 4.3 6-4.3-2.3 7 6 4.4Z"/>
  <path transform="matrix(1.333 0 0 -1.333 284.5 122.2)" d="M0 0h-7.5l-2.3 7.2L-12 0h-7.5l6.1-4.4-2.3-7 6 4.3 6-4.3-2.3 7z"/>
  <path transform="matrix(1.333 0 0 -1.333 252.5 96.2)" d="m0 0 6 4.4L12 0 9.7 7l6 4.4H8.4L6 18.6l-2.3-7.2h-7.5l6-4.3z"/>
  <path transform="matrix(1.333 0 0 -1.333 230.4 41.2)" d="m0 0-2.3-7.2h-7.5l6-4.3-2.2-7 6 4.3 6-4.4-2.3 7 6 4.5H2.4z"/>
 </g>
</svg>
