<?xml version="1.0" encoding="UTF-8" standalone="no"?>
<!-- Created with Inkscape (http://www.inkscape.org/) -->

<svg
   version="1.1"
   id="svg1"
   width="378.13599"
   height="252.09332"
   viewBox="0 0 378.13599 252.09331"
   sodipodi:docname="eu.svg"
   inkscape:version="1.4.3 (0d15f75, 2025-12-25)"
   xmlns:inkscape="http://www.inkscape.org/namespaces/inkscape"
   xmlns:sodipodi="http://sodipodi.sourceforge.net/DTD/sodipodi-0.dtd"
   xmlns="http://www.w3.org/2000/svg"
   xmlns:svg="http://www.w3.org/2000/svg">
  <defs
     id="defs1" />
  <sodipodi:namedview
     id="namedview1"
     pagecolor="#ffffff"
     bordercolor="#000000"
     borderopacity="0.25"
     inkscape:showpageshadow="2"
     inkscape:pageopacity="0.0"
     inkscape:pagecheckerboard="0"
     inkscape:deskcolor="#d1d1d1"
     inkscape:zoom="2.2099579"
     inkscape:cx="78.508283"
     inkscape:cy="136.20169"
     inkscape:window-width="1894"
     inkscape:window-height="1017"
     inkscape:window-x="0"
     inkscape:window-y="0"
     inkscape:window-maximized="1"
     inkscape:current-layer="layer-MC0">
    <inkscape:page
       x="0"
       y="0"
       inkscape:label="1"
       id="page1"
       width="378.13599"
       height="252.09331"
       margin="0"
       bleed="0" />
  </sodipodi:namedview>
  <g
     id="layer-MC0"
     inkscape:groupmode="layer"
     inkscape:label="Calque 1"
     transform="translate(-206.02933,-449.24538)">
    <path
       id="path2"
       d="M 154.522,505.066 H 438.124 V 315.996 H 154.522 Z"
       style="fill:#254aa5;fill-opacity:1;fill-rule:nonzero;stroke:none"
       transform="matrix(1.3333333,0,0,-1.3333333,0,1122.6667)" />
    <path
       id="path3"
       d="M 0,0 5.984,4.367 11.969,0 9.691,7.062 15.77,11.43 H 8.277 L 5.984,18.578 3.691,11.422 -3.797,11.43 2.277,7.062 Z"
       style="fill:#fff200;fill-opacity:1;fill-rule:nonzero;stroke:none"
       transform="matrix(1.3333333,0,0,-1.3333333,387.0404,504.17187)" />
    <path
       id="path4"
       d="M 0,0 5.984,4.367 11.965,0 9.691,7.062 15.766,11.43 H 8.273 L 5.98,18.586 3.688,11.422 -3.801,11.43 2.273,7.062 Z"
       style="fill:#fff200;fill-opacity:1;fill-rule:nonzero;stroke:none"
       transform="matrix(1.3333333,0,0,-1.3333333,345.74867,515.2656)" />
    <path
       id="path5"
       d="m 0,0 -2.293,-7.164 -7.488,0.008 6.074,-4.367 -2.277,-7.063 5.984,4.367 5.984,-4.367 -2.277,7.063 6.074,4.367 H 2.293 Z"
       style="fill:#fff200;fill-opacity:1;fill-rule:nonzero;stroke:none"
       transform="matrix(1.3333333,0,0,-1.3333333,323.51427,520.7656)" />
    <path
       id="path6"
       d="M 0,0 5.98,-4.367 3.707,2.695 9.781,7.062 H 2.293 L 0,14.219 -2.293,7.047 -9.785,7.062 -3.707,2.695 -5.984,-4.367 Z"
       style="fill:#fff200;fill-opacity:1;fill-rule:nonzero;stroke:none"
       transform="matrix(1.3333333,0,0,-1.3333333,312.43093,580.9636)" />
    <path
       id="path7"
       d="M 0,0 -2.293,7.156 -4.586,-0.008 -12.074,0 -6,-4.367 -8.277,-11.43 -2.293,-7.055 3.691,-11.43 1.414,-4.367 7.488,0 Z"
       style="fill:#fff200;fill-opacity:1;fill-rule:nonzero;stroke:none"
       transform="matrix(1.3333333,0,0,-1.3333333,326.5716,612.91147)" />
    <path
       id="path8"
       d="M 0,0 -2.293,7.148 -4.582,-0.008 -12.074,0 -6,-4.367 -8.273,-11.43 -2.289,-7.062 3.691,-11.43 1.418,-4.367 7.492,0 Z"
       style="fill:#fff200;fill-opacity:1;fill-rule:nonzero;stroke:none"
       transform="matrix(1.3333333,0,0,-1.3333333,356.8424,643.18227)" />
    <path
       id="path9"
       d="M 0,0 -2.293,7.156 -4.582,-0.008 -12.074,0 -6,-4.367 -8.273,-11.43 -2.289,-7.062 3.691,-11.43 1.414,-4.367 7.492,0 Z"
       style="fill:#fff200;fill-opacity:1;fill-rule:nonzero;stroke:none"
       transform="matrix(1.3333333,0,0,-1.3333333,398.082,654.15107)" />
    <path
       id="path10"
       d="M 0,0 -2.289,7.148 -4.586,-0.008 -12.07,0 -6,-4.367 -8.273,-11.43 -2.289,-7.062 3.695,-11.43 1.414,-4.367 7.492,0 Z"
       style="fill:#fff200;fill-opacity:1;fill-rule:nonzero;stroke:none"
       transform="matrix(1.3333333,0,0,-1.3333333,439.3216,643.18227)" />
    <path
       id="path11"
       d="M 0,0 -2.297,7.156 -4.594,-0.008 -12.078,0 -6,-4.367 -8.281,-11.43 -2.297,-7.055 3.688,-11.43 1.406,-4.367 7.484,0 Z"
       style="fill:#fff200;fill-opacity:1;fill-rule:nonzero;stroke:none"
       transform="matrix(1.3333333,0,0,-1.3333333,469.6028,612.91147)" />
    <path
       id="path12"
       d="M 0,0 H -7.492 L -9.789,7.156 -12.078,-0.008 -19.57,0 l 6.078,-4.367 -2.274,-7.063 5.977,4.375 5.984,-4.375 -2.273,7.063 z"
       style="fill:#fff200;fill-opacity:1;fill-rule:nonzero;stroke:none"
       transform="matrix(1.3333333,0,0,-1.3333333,490.5508,571.43227)" />
    <path
       id="path13"
       d="M 0,0 5.984,4.367 11.969,0 9.688,7.062 l 6.078,4.36 H 8.281 l -2.297,7.156 -2.296,-7.164 -7.485,0.008 6.078,-4.36 z"
       style="fill:#fff200;fill-opacity:1;fill-rule:nonzero;stroke:none"
       transform="matrix(1.3333333,0,0,-1.3333333,458.5612,545.42187)" />
    <path
       id="path14"
       d="m 0,0 -2.289,-7.164 -7.492,0.016 6.07,-4.375 -2.273,-7.063 5.992,4.375 5.976,-4.375 -2.273,7.063 6.078,4.375 h -7.5 z"
       style="fill:#fff200;fill-opacity:1;fill-rule:nonzero;stroke:none"
       transform="matrix(1.3333333,0,0,-1.3333333,436.38413,490.4948)" />
  </g>
</svg>
