<svg width="543.194" height="109.519" viewBox="0 0 143.72 28.977" xml:space="preserve" xmlns="http://www.w3.org/2000/svg">
    <path id="evim" d="M91.221 14.066a2.666 2.666 0 0 0-.881.123c-1.114.354-1.988 1.318-1.983 2.442.004.865.441 1.53.995 1.957.553.426 1.207.678 1.808.93.602.252 1.144.506 1.473.81.329.304.494.604.427 1.237-.136 1.31-.988 1.868-1.923 1.892-.936.024-1.922-.527-2.256-1.824l-1.032.267c.449 1.738 1.914 2.657 3.315 2.622 1.401-.036 2.772-1.07 2.957-2.846.095-.911-.245-1.651-.765-2.13-.52-.48-1.171-.752-1.784-1.01-.612-.256-1.192-.497-1.572-.79-.38-.292-.573-.571-.576-1.121-.002-.51.53-1.197 1.238-1.422.708-.225 1.516-.11 2.244 1.053l.903-.567c-.695-1.109-1.673-1.597-2.588-1.623zm7.726 3.762c-.67 0-1.297.198-1.823.537v-.303h-1.089v9.684h1.089v-3.697c.526.34 1.152.537 1.823.537 1.86 0 3.379-1.52 3.379-3.379 0-1.86-1.52-3.38-3.38-3.38zm25.27.027a3.387 3.387 0 0 0-3.379 3.38c0 1.86 1.519 3.378 3.379 3.378s3.379-1.519 3.379-3.379-1.52-3.379-3.38-3.379zm11.389 0c-1.86 0-3.38 1.52-3.38 3.38 0 1.86 1.52 3.378 3.38 3.378 1.86 0 3.378-1.519 3.378-3.379s-1.518-3.379-3.378-3.379zm-24.795.233v1.005l3.611.028-4.39 5.091c-.027.031-.071.06-.069.103v.024h6.462v-1.006c-1.431-.01-2.862-.018-4.294-.027l4.417-5.126c.025-.029.044-.054.036-.092h-5.773zm-11.864.804a2.307 2.307 0 0 1 2.315 2.315 2.307 2.307 0 0 1-2.315 2.315c-.743 0-1.4-.345-1.823-.884v-2.862a2.306 2.306 0 0 1 1.823-.884zm25.27.028a2.307 2.307 0 0 1 2.314 2.314 2.307 2.307 0 0 1-2.314 2.315 2.307 2.307 0 0 1-2.315-2.315 2.307 2.307 0 0 1 2.315-2.314zm11.389 0a2.306 2.306 0 0 1 2.314 2.314 2.306 2.306 0 0 1-2.314 2.315 2.307 2.307 0 0 1-2.315-2.315 2.307 2.307 0 0 1 2.315-2.314zm-31.022 4.065a.755.755 0 0 0-.755.755.755.755 0 0 0 .755.755.755.755 0 0 0 .754-.755.755.755 0 0 0-.754-.755zm25.352 0a.755.755 0 0 0-.755.755.755.755 0 0 0 .755.755.755.755 0 0 0 .754-.755.755.755 0 0 0-.754-.755zm11.343 0a.755.755 0 0 0-.755.755.755.755 0 0 0 .755.755.755.755 0 0 0 .755-.755.755.755 0 0 0-.755-.755z"/>
    <path id='spzoo' d="M1.323 1.325H14.37l-.053 5.029-7.02.052v3.781h6.672v5.079H7.297v3.883h7.07v5.078H1.323Zm14.417 0h6.472l5.411 13.692.148.15 5.493-13.845 6.46.053-9.717 22.803-4.655.053zm26.409 0h5.974v22.903H42.15zm13.598.05 5.878-.053 4.545 12.002.129.143 4.876-12.141 5.925-.001.013.05 3.434 22.803-5.867.052-.08-.079-1.738-12.957-5.466 13.04-2.339-.011-5.339-13.064-1.956 13.068-5.9.006 3.885-22.859z" style="fill:#699669;stroke-width:.376342"/>
</svg>
