<?xml version="1.0" encoding="UTF-8" standalone="no"?>
<svg
   width="143.72mm"
   height="28.977mm"
   version="1.1"
   viewBox="0 0 143.72 28.977"
   xml:space="preserve"
   id="svg2"
   sodipodi:docname="evim-logo.svg"
   inkscape:version="1.4.3 (0d15f75042, 2025-12-25)"
   xmlns:inkscape="http://www.inkscape.org/namespaces/inkscape"
   xmlns:sodipodi="http://sodipodi.sourceforge.net/DTD/sodipodi-0.dtd"
   xmlns="http://www.w3.org/2000/svg"
   xmlns:svg="http://www.w3.org/2000/svg"><defs
     id="defs2" /><sodipodi:namedview
     id="namedview2"
     pagecolor="#ffffff"
     bordercolor="#000000"
     borderopacity="0.25"
     inkscape:showpageshadow="2"
     inkscape:pageopacity="0.0"
     inkscape:pagecheckerboard="0"
     inkscape:deskcolor="#d1d1d1"
     inkscape:document-units="mm"
     inkscape:zoom="2.8284271"
     inkscape:cx="280.36784"
     inkscape:cy="113.84419"
     inkscape:window-width="2530"
     inkscape:window-height="1373"
     inkscape:window-x="0"
     inkscape:window-y="0"
     inkscape:window-maximized="1"
     inkscape:current-layer="svg2" /><path
     id="spzoo"
     style="stroke-width:0.200195"
     d="M 91.221305 14.066325 C 90.916309 14.057841 90.61805 14.1008 90.339705 14.189315 C 89.226325 14.543377 88.352226 15.506654 88.357397 16.631026 C 88.361397 17.495556 88.798401 18.161568 89.351652 18.588013 C 89.904904 19.014457 90.55914 19.265676 91.160327 19.517672 C 91.761515 19.769669 92.303582 20.024368 92.632589 20.327958 C 92.961597 20.631548 93.126504 20.931901 93.06047 21.564575 C 92.923669 22.875261 92.072487 23.432927 91.136556 23.456966 C 90.200625 23.481006 89.215433 22.929837 88.88088 21.632788 L 87.849418 21.900472 C 88.29756 23.637904 89.762696 24.557493 91.163944 24.521501 C 92.565193 24.485511 93.935503 23.451678 94.12087 21.67568 C 94.21592 20.765013 93.875662 20.024999 93.355542 19.54506 C 92.835422 19.065121 92.184796 18.793637 91.572188 18.536853 C 90.959579 18.28007 90.379861 18.038852 90.000191 17.746204 C 89.620521 17.453555 89.426528 17.174763 89.423999 16.624825 C 89.421699 16.114093 89.954152 15.428359 90.662166 15.203206 C 91.37018 14.978053 92.177622 15.092487 92.906474 16.255855 L 93.808744 15.689482 C 93.11381 14.580252 92.136293 14.091776 91.221305 14.066325 z M 98.946932 17.827852 C 98.276452 17.827852 97.650457 18.025703 97.123787 18.365287 L 97.123787 18.061947 L 96.035482 18.061947 L 96.035482 27.745593 L 97.123787 27.745593 L 97.123787 24.049178 C 97.650457 24.388761 98.276452 24.586096 98.946932 24.586096 C 100.80691 24.586096 102.32554 23.066949 102.32554 21.206974 C 102.32554 19.346999 100.80691 17.827852 98.946932 17.827852 z M 124.21671 17.855241 C 122.35673 17.855241 120.8381 19.374388 120.8381 21.234363 C 120.8381 23.094338 122.35673 24.613485 124.21671 24.613485 C 126.07668 24.613485 127.59583 23.094338 127.59583 21.234363 C 127.59583 19.374388 126.07668 17.855241 124.21671 17.855241 z M 135.60568 17.855241 C 133.7457 17.855241 132.22655 19.374388 132.22655 21.234363 C 132.22655 23.094338 133.7457 24.613485 135.60568 24.613485 C 137.46565 24.613485 138.98429 23.094338 138.98428 21.234363 C 138.98428 19.374388 137.46565 17.855241 135.60568 17.855241 z M 110.81081 18.087785 L 110.81081 19.092891 C 112.01462 19.102191 113.21823 19.111507 114.42196 19.120797 C 112.95858 20.81802 111.495 22.515253 110.03153 24.212476 C 110.00493 24.243356 109.96081 24.271617 109.96331 24.315312 L 109.96331 24.338566 L 116.42545 24.338566 L 116.42545 23.332943 C 114.99402 23.323743 113.56256 23.314774 112.13114 23.305554 C 113.60349 21.597042 115.07617 19.888281 116.54844 18.179769 C 116.57304 18.151149 116.5916 18.125755 116.5841 18.087785 L 110.81081 18.087785 z M 98.946932 18.892387 C 100.23134 18.892387 101.26152 19.922568 101.26152 21.206974 C 101.26152 22.49138 100.23134 23.521562 98.946932 23.521562 C 98.204032 23.521562 97.546397 23.177001 97.123787 22.637895 L 97.123787 19.776054 C 97.546397 19.236948 98.204032 18.892387 98.946932 18.892387 z M 124.21671 18.919775 C 125.50111 18.919775 126.53129 19.949957 126.53129 21.234363 C 126.53129 22.518769 125.50111 23.54895 124.21671 23.54895 C 122.9323 23.54895 121.90212 22.518769 121.90212 21.234363 C 121.90212 19.949957 122.9323 18.919775 124.21671 18.919775 z M 135.60568 18.919775 C 136.89008 18.919775 137.91975 19.949957 137.91975 21.234363 C 137.91975 22.518769 136.89008 23.54895 135.60568 23.54895 C 134.32127 23.54895 133.29109 22.518769 133.29109 21.234363 C 133.29109 19.949957 134.32127 18.919775 135.60568 18.919775 z M 104.5838 22.98516 A 0.75484592 0.75484592 0 0 0 103.8288 23.740153 A 0.75484592 0.75484592 0 0 0 104.5838 24.495146 A 0.75484592 0.75484592 0 0 0 105.33827 23.740153 A 0.75484592 0.75484592 0 0 0 104.5838 22.98516 z M 129.93574 22.98516 A 0.75484592 0.75484592 0 0 0 129.18075 23.740153 A 0.75484592 0.75484592 0 0 0 129.93574 24.495146 A 0.75484592 0.75484592 0 0 0 130.69021 23.740153 A 0.75484592 0.75484592 0 0 0 129.93574 22.98516 z M 141.27872 22.98516 A 0.75484592 0.75484592 0 0 0 140.52372 23.740153 A 0.75484592 0.75484592 0 0 0 141.27872 24.495146 A 0.75484592 0.75484592 0 0 0 142.03371 23.740153 A 0.75484592 0.75484592 0 0 0 141.27872 22.98516 z " /><path
     d="M 1.3228745,1.3253254 H 14.370386 l -0.05321,5.0284968 -7.0199898,0.052313 V 10.187407 H 13.9687 v 5.078302 H 7.2971872 v 3.883457 h 7.0697958 v 5.078303 H 1.3227915 Z m 14.4171765,-1.7e-6 h 6.472373 l 5.410924,13.6916693 0.147193,0.149833 5.493602,-13.8444076 6.460419,0.052778 -9.71715,22.8028466 -4.654952,0.05329 z m 26.408802,1.7e-6 h 5.974478 V 24.227784 h -5.974478 z m 13.597868,0.049789 5.878768,-0.052695 4.544382,12.0015856 0.129114,0.142694 4.875925,-12.1410422 5.924672,-7.529e-4 0.01361,0.049756 3.433709,22.8028471 -5.867313,0.05276 -0.07931,-0.07931 -1.738644,-12.957031 -5.465462,13.039211 -2.33889,-0.01015 -5.33912,-13.064114 -1.956546,13.068264 -5.899852,0.0056 3.884951,-22.8584634 z"
     style="fill:#699669;stroke-width:0.376342"
     id="evim" /></svg>
