<?xml version="1.0" encoding="UTF-8" standalone="no"?>
<!-- Generator: Adobe Illustrator 27.4.1, SVG Export Plug-In . SVG Version: 6.00 Build 0)  -->

<svg
   version="1.1"
   id="Layer_1"
   x="0px"
   y="0px"
   viewBox="0 0 421.80999 101.66"
   xml:space="preserve"
   sodipodi:docname="NFOSiGW_logo.svg"
   width="421.81"
   height="101.66"
   inkscape:version="1.4.3 (0d15f75, 2025-12-25)"
   xmlns:inkscape="http://www.inkscape.org/namespaces/inkscape"
   xmlns:sodipodi="http://sodipodi.sourceforge.net/DTD/sodipodi-0.dtd"
   xmlns="http://www.w3.org/2000/svg"
   xmlns:svg="http://www.w3.org/2000/svg"><defs
   id="defs52"><linearGradient
     id="linearGradient52"
     gradientUnits="userSpaceOnUse"
     x1="256.83179"
     y1="348.3035"
     x2="256.83179"
     y2="257.72089">
			<stop
   offset="0"
   style="stop-color:#0099CC"
   id="stop49-6" />
			<stop
   offset="0.9986"
   style="stop-color:#2DB34A"
   id="stop50-0" />
		</linearGradient></defs><sodipodi:namedview
   id="namedview52"
   pagecolor="#ffffff"
   bordercolor="#000000"
   borderopacity="0.25"
   inkscape:showpageshadow="2"
   inkscape:pageopacity="0.0"
   inkscape:pagecheckerboard="0"
   inkscape:deskcolor="#d1d1d1"
   showgrid="false"
   inkscape:zoom="1.0495861"
   inkscape:cx="221.99226"
   inkscape:cy="55.259876"
   inkscape:window-width="1894"
   inkscape:window-height="1017"
   inkscape:window-x="0"
   inkscape:window-y="0"
   inkscape:window-maximized="1"
   inkscape:current-layer="Layer_1" />
<style
   type="text/css"
   id="style1">
	.st0{fill:#4D4D4D;}
	.st1{fill:url(#SVGID_1_);}
	.st2{fill:#0099CC;}
</style>
<g
   id="g52"
   transform="translate(-210.04,-246.82)">
	<g
   id="g49">
		<path
   class="st0"
   d="m 340.37,278.89 h -3.56 l -8.2,-12.61 v 12.61 h -4.03 v -20.64 h 3.59 l 8.17,12.61 v -12.61 h 4.03 z"
   id="path1" />
		<path
   class="st0"
   d="m 360.57,278.89 h -4.23 l -1.22,-3.65 h -7.3 l -1.25,3.65 h -4.23 l 7.54,-20.64 h 3.16 z m -11.65,-7.04 h 5.07 l -2.52,-7.48 z"
   id="path2" />
		<path
   class="st0"
   d="m 370.6,258.25 c 4.23,0 6.7,2.87 6.7,6.32 0,2.9 -1.77,4.72 -3.77,5.42 l 4.61,8.9 h -4.67 l -4.03,-8.23 h -2.9 v 8.23 h -4.03 v -20.64 z m -4.06,3.6 v 5.42 h 3.83 c 1.77,0 2.9,-1.1 2.9,-2.72 0,-1.59 -1.13,-2.7 -2.9,-2.7 z"
   id="path3" />
		<path
   class="st0"
   d="m 393.06,260.25 c 2.06,2.03 2.09,4.38 2.09,8.32 0,3.94 -0.03,6.29 -2.09,8.32 -1.42,1.39 -3.16,2.17 -5.54,2.17 -2.38,0 -4.12,-0.78 -5.54,-2.17 -2.06,-2.06 -2.09,-4.38 -2.09,-8.32 0,-3.94 0.03,-6.26 2.09,-8.32 1.42,-1.39 3.16,-2.17 5.54,-2.17 2.38,0 4.12,0.78 5.54,2.17 z m -8.12,2.53 c -0.78,0.87 -1.01,1.85 -1.01,5.8 0,3.95 0.23,4.9 1.01,5.77 0.58,0.67 1.48,1.13 2.58,1.13 1.1,0 2,-0.46 2.58,-1.13 0.78,-0.87 1.01,-1.83 1.01,-5.77 0,-3.94 -0.23,-4.93 -1.01,-5.8 -0.58,-0.67 -1.48,-1.1 -2.58,-1.1 -1.1,-0.01 -1.99,0.43 -2.58,1.1 z"
   id="path4" />
		<path
   class="st0"
   d="m 406.13,258.25 c 2.81,0 4.81,1.04 6.23,3.01 1.28,1.77 1.3,3.88 1.3,7.3 0,3.42 -0.03,5.54 -1.3,7.3 -1.42,1.97 -3.42,3.01 -6.23,3.01 h -7.45 v -20.64 h 7.45 z m -3.42,3.6 v 13.45 h 3.07 c 1.36,0 2.35,-0.43 3.01,-1.27 0.75,-0.9 0.84,-2.17 0.84,-5.45 0,-3.25 -0.09,-4.55 -0.84,-5.45 -0.67,-0.84 -1.65,-1.27 -3.01,-1.27 h -3.07 z"
   id="path5" />
		<path
   class="st0"
   d="m 429.67,260.25 c 2.06,2.03 2.09,4.38 2.09,8.32 0,3.94 -0.03,6.29 -2.09,8.32 -1.42,1.39 -3.16,2.17 -5.54,2.17 -2.38,0 -4.12,-0.78 -5.54,-2.17 -2.06,-2.06 -2.09,-4.38 -2.09,-8.32 0,-3.94 0.03,-6.26 2.09,-8.32 1.42,-1.39 3.16,-2.17 5.54,-2.17 2.38,0 4.12,0.78 5.54,2.17 z m -8.12,2.53 c -0.78,0.87 -1.01,1.85 -1.01,5.8 0,3.95 0.23,4.9 1.01,5.77 0.58,0.67 1.48,1.13 2.58,1.13 1.1,0 2,-0.46 2.58,-1.13 0.78,-0.87 1.01,-1.83 1.01,-5.77 0,-3.94 -0.23,-4.93 -1.01,-5.8 -0.58,-0.67 -1.48,-1.1 -2.58,-1.1 -1.1,0 -2,0.43 -2.58,1.1 z"
   id="path6" />
		<path
   class="st0"
   d="m 452.71,278.89 h -3.39 l -3.8,-12.49 -3.77,12.49 h -3.36 l -5.54,-20.64 h 4.2 l 3.19,12.98 3.8,-12.98 h 2.99 l 3.8,12.98 3.19,-12.98 h 4.2 z"
   id="path7" />
		<path
   class="st0"
   d="m 468.1,270.46 v 8.43 h -4.03 v -8.43 l -6.17,-12.2 h 4.38 l 3.85,8.32 3.8,-8.32 h 4.38 z"
   id="path8" />
		<path
   class="st0"
   d="m 495.66,261.85 h -9.56 v 5.07 h 8.17 v 3.59 h -8.17 v 8.38 h -4.03 v -20.64 h 13.59 z"
   id="path9" />
		<path
   class="st0"
   d="m 513.46,271.82 c 0,4.38 -3.36,7.25 -7.62,7.25 -4.23,0 -7.56,-2.87 -7.56,-7.25 v -13.56 h 4.03 v 13.42 c 0,2.35 1.36,3.8 3.54,3.8 2.18,0 3.59,-1.45 3.59,-3.8 v -13.42 h 4.03 v 13.56 z"
   id="path10" />
		<path
   class="st0"
   d="m 533.17,278.89 h -3.57 l -8.2,-12.61 v 12.61 h -4.03 v -20.64 h 3.59 l 8.17,12.61 v -12.61 h 4.03 v 20.64 z"
   id="path11" />
		<path
   class="st0"
   d="m 544.87,258.25 c 2.81,0 4.81,1.04 6.23,3.01 1.28,1.77 1.3,3.88 1.3,7.3 0,3.42 -0.03,5.54 -1.3,7.3 -1.42,1.97 -3.42,3.01 -6.23,3.01 h -7.45 v -20.64 h 7.45 z m -3.42,3.6 v 13.45 h 3.07 c 1.36,0 2.35,-0.43 3.01,-1.27 0.75,-0.9 0.84,-2.17 0.84,-5.45 0,-3.25 -0.09,-4.55 -0.84,-5.45 -0.67,-0.84 -1.65,-1.27 -3.01,-1.27 h -3.07 z"
   id="path12" />
		<path
   class="st0"
   d="m 570.81,271.82 c 0,4.38 -3.36,7.25 -7.62,7.25 -4.23,0 -7.56,-2.87 -7.56,-7.25 v -13.56 h 4.03 v 13.42 c 0,2.35 1.36,3.8 3.54,3.8 2.18,0 3.59,-1.45 3.59,-3.8 v -13.42 h 4.03 v 13.56 z"
   id="path13" />
		<path
   class="st0"
   d="m 587.54,260.49 -2.55,2.52 c -1.1,-1.1 -2.35,-1.42 -4.23,-1.42 -2.15,0 -3.19,1.19 -3.19,2.61 0,0.55 0.17,1.07 0.61,1.48 0.41,0.38 1.01,0.67 1.88,0.78 l 2.46,0.38 c 1.88,0.26 3.04,0.75 3.94,1.62 1.1,1.04 1.59,2.49 1.59,4.35 0,4 -3.3,6.26 -7.65,6.26 -3.13,0 -5.51,-0.67 -7.54,-2.72 l 2.61,-2.61 c 1.3,1.3 3.07,1.74 4.96,1.74 2.41,0 3.68,-0.93 3.68,-2.58 0,-0.7 -0.2,-1.28 -0.64,-1.71 -0.41,-0.38 -0.87,-0.55 -1.85,-0.7 l -2.46,-0.38 c -1.74,-0.26 -3.07,-0.81 -4,-1.71 -0.99,-0.96 -1.48,-2.32 -1.48,-4.06 0,-3.68 2.72,-6.26 7.19,-6.26 2.84,0 4.9,0.7 6.67,2.41 z"
   id="path14" />
		<path
   class="st0"
   d="m 603.59,261.44 -8.81,13.85 h 8.81 v 3.59 h -13.56 v -3.19 l 8.78,-13.85 h -8.41 v -3.59 h 13.19 z"
   id="path15" />
		<path
   class="st0"
   d="m 337.04,294.95 c 2.06,2.03 2.09,4.38 2.09,8.32 0,3.94 -0.03,6.29 -2.09,8.32 -1.42,1.39 -3.16,2.17 -5.54,2.17 -2.38,0 -4.12,-0.78 -5.54,-2.17 -2.06,-2.06 -2.09,-4.38 -2.09,-8.32 0,-3.94 0.03,-6.26 2.09,-8.32 1.42,-1.39 3.16,-2.17 5.54,-2.17 2.38,0 4.12,0.78 5.54,2.17 z m -8.12,2.53 c -0.78,0.87 -1.01,1.85 -1.01,5.8 0,3.95 0.23,4.9 1.01,5.77 0.58,0.67 1.48,1.13 2.58,1.13 1.1,0 2,-0.46 2.58,-1.13 0.78,-0.87 1.01,-1.83 1.01,-5.77 0,-3.94 -0.23,-4.93 -1.01,-5.8 -0.58,-0.67 -1.48,-1.1 -2.58,-1.1 -1.1,0 -2,0.43 -2.58,1.1 z"
   id="path16" />
		<path
   class="st0"
   d="m 357.15,299.3 h -4.09 c -0.41,-1.68 -1.48,-2.93 -3.48,-2.93 -1.1,0 -2,0.41 -2.58,1.07 -0.75,0.87 -1.01,1.88 -1.01,5.83 0,3.95 0.26,4.96 1.01,5.83 0.58,0.67 1.48,1.07 2.58,1.07 2,0 3.07,-1.25 3.48,-2.93 h 4.09 c -0.72,4.32 -3.71,6.52 -7.56,6.52 -2.38,0 -4.12,-0.78 -5.54,-2.17 -2.06,-2.06 -2.09,-4.38 -2.09,-8.32 0,-3.94 0.03,-6.26 2.09,-8.32 1.42,-1.39 3.16,-2.17 5.54,-2.17 3.85,0 6.84,2.2 7.56,6.52 z"
   id="path17" />
		<path
   class="st0"
   d="m 375.12,313.59 h -4.03 v -8.64 h -7.01 v 8.64 h -4.03 v -20.64 h 4.03 v 8.41 h 7.01 v -8.41 h 4.03 z"
   id="path18" />
		<path
   class="st0"
   d="m 387.44,292.95 c 4.23,0 6.7,2.87 6.7,6.32 0,2.9 -1.77,4.72 -3.77,5.42 l 4.61,8.9 h -4.67 l -4.03,-8.23 h -2.9 v 8.23 h -4.03 v -20.64 z m -4.06,3.6 v 5.42 h 3.83 c 1.77,0 2.9,-1.1 2.9,-2.72 0,-1.59 -1.13,-2.7 -2.9,-2.7 z"
   id="path19" />
		<path
   class="st0"
   d="m 409.9,294.95 c 2.06,2.03 2.09,4.38 2.09,8.32 0,3.94 -0.03,6.29 -2.09,8.32 -1.42,1.39 -3.16,2.17 -5.54,2.17 -2.38,0 -4.12,-0.78 -5.54,-2.17 -2.06,-2.06 -2.09,-4.38 -2.09,-8.32 0,-3.94 0.03,-6.26 2.09,-8.32 1.42,-1.39 3.16,-2.17 5.54,-2.17 2.38,0 4.12,0.78 5.54,2.17 z m -8.12,2.53 c -0.78,0.87 -1.01,1.85 -1.01,5.8 0,3.95 0.23,4.9 1.01,5.77 0.58,0.67 1.48,1.13 2.58,1.13 1.1,0 2,-0.46 2.58,-1.13 0.78,-0.87 1.01,-1.83 1.01,-5.77 0,-3.94 -0.23,-4.93 -1.01,-5.8 -0.58,-0.67 -1.48,-1.1 -2.58,-1.1 -1.1,0 -2,0.43 -2.58,1.1 z"
   id="path20" />
		<path
   class="st0"
   d="m 431.32,313.59 h -3.56 l -8.2,-12.61 v 12.61 h -4.03 v -20.64 h 3.59 l 8.17,12.61 v -12.61 h 4.03 z"
   id="path21" />
		<path
   class="st0"
   d="m 443.46,305.16 v 8.43 h -4.03 v -8.43 l -6.17,-12.2 h 4.38 l 3.85,8.32 3.8,-8.32 h 4.38 z"
   id="path22" />
		<path
   class="st0"
   d="m 470.24,295.19 -2.55,2.52 c -1.1,-1.1 -2.35,-1.42 -4.23,-1.42 -2.15,0 -3.19,1.19 -3.19,2.61 0,0.55 0.17,1.07 0.61,1.48 0.41,0.38 1.01,0.67 1.88,0.78 l 2.46,0.38 c 1.88,0.26 3.04,0.75 3.94,1.62 1.1,1.04 1.59,2.49 1.59,4.35 0,4 -3.3,6.26 -7.65,6.26 -3.13,0 -5.51,-0.67 -7.54,-2.72 l 2.61,-2.61 c 1.3,1.3 3.07,1.74 4.96,1.74 2.41,0 3.68,-0.93 3.68,-2.58 0,-0.7 -0.2,-1.28 -0.64,-1.71 -0.41,-0.38 -0.87,-0.55 -1.85,-0.7 l -2.46,-0.38 c -1.74,-0.26 -3.07,-0.81 -4,-1.71 -0.99,-0.96 -1.48,-2.32 -1.48,-4.06 0,-3.68 2.72,-6.26 7.19,-6.26 2.85,0 4.9,0.7 6.67,2.41 z m -5.74,-4.24 h -2.52 l 1.85,-4.93 h 3.97 z"
   id="path23" />
		<path
   class="st0"
   d="m 482.07,292.95 c 4.23,0 6.7,2.87 6.7,6.32 0,2.9 -1.77,4.72 -3.77,5.42 l 4.61,8.9 h -4.67 l -4.03,-8.23 h -2.9 v 8.23 h -4.03 v -20.64 z m -4.06,3.6 v 5.42 h 3.83 c 1.77,0 2.9,-1.1 2.9,-2.72 0,-1.59 -1.13,-2.7 -2.9,-2.7 z"
   id="path24" />
		<path
   class="st0"
   d="m 504.53,294.95 c 2.06,2.03 2.09,4.38 2.09,8.32 0,3.94 -0.03,6.29 -2.09,8.32 -1.42,1.39 -3.16,2.17 -5.54,2.17 -2.38,0 -4.12,-0.78 -5.54,-2.17 -2.06,-2.06 -2.09,-4.38 -2.09,-8.32 0,-3.94 0.03,-6.26 2.09,-8.32 1.42,-1.39 3.16,-2.17 5.54,-2.17 2.38,0 4.12,0.78 5.54,2.17 z m -8.12,2.53 c -0.78,0.87 -1.01,1.85 -1.01,5.8 0,3.95 0.23,4.9 1.01,5.77 0.58,0.67 1.48,1.13 2.58,1.13 1.1,0 2,-0.46 2.58,-1.13 0.78,-0.87 1.01,-1.83 1.01,-5.77 0,-3.94 -0.23,-4.93 -1.01,-5.8 -0.58,-0.67 -1.48,-1.1 -2.58,-1.1 -1.1,-0.01 -2,0.43 -2.58,1.1 z"
   id="path25" />
		<path
   class="st0"
   d="m 517.6,292.95 c 2.81,0 4.81,1.04 6.23,3.01 1.28,1.77 1.3,3.88 1.3,7.3 0,3.42 -0.03,5.54 -1.3,7.3 -1.42,1.97 -3.42,3.01 -6.23,3.01 h -7.45 v -20.64 h 7.45 z m -3.42,3.6 V 310 h 3.07 c 1.36,0 2.35,-0.43 3.01,-1.27 0.75,-0.9 0.84,-2.17 0.84,-5.45 0,-3.25 -0.09,-4.55 -0.84,-5.45 -0.67,-0.84 -1.65,-1.27 -3.01,-1.27 h -3.07 z"
   id="path26" />
		<path
   class="st0"
   d="m 541.13,294.95 c 2.06,2.03 2.09,4.38 2.09,8.32 0,3.94 -0.03,6.29 -2.09,8.32 -1.42,1.39 -3.16,2.17 -5.54,2.17 -2.38,0 -4.12,-0.78 -5.54,-2.17 -2.06,-2.06 -2.09,-4.38 -2.09,-8.32 0,-3.94 0.03,-6.26 2.09,-8.32 1.42,-1.39 3.16,-2.17 5.54,-2.17 2.39,0 4.13,0.78 5.54,2.17 z m -8.11,2.53 c -0.78,0.87 -1.01,1.85 -1.01,5.8 0,3.95 0.23,4.9 1.01,5.77 0.58,0.67 1.48,1.13 2.58,1.13 1.1,0 2,-0.46 2.58,-1.13 0.78,-0.87 1.01,-1.83 1.01,-5.77 0,-3.94 -0.23,-4.93 -1.01,-5.8 -0.58,-0.67 -1.48,-1.1 -2.58,-1.1 -1.1,-0.01 -2,0.43 -2.58,1.1 z"
   id="path27" />
		<path
   class="st0"
   d="m 564.18,313.59 h -3.39 l -3.8,-12.49 -3.77,12.49 h -3.36 l -5.54,-20.64 h 4.2 l 3.19,12.98 3.8,-12.98 h 2.99 l 3.8,12.98 3.19,-12.98 h 4.2 z"
   id="path28" />
		<path
   class="st0"
   d="m 575.71,313.59 h -4.03 v -20.64 h 4.03 z"
   id="path29" />
		<path
   class="st0"
   d="m 592.78,295.19 -2.55,2.52 c -1.1,-1.1 -2.35,-1.42 -4.23,-1.42 -2.15,0 -3.19,1.19 -3.19,2.61 0,0.55 0.17,1.07 0.61,1.48 0.41,0.38 1.01,0.67 1.88,0.78 l 2.46,0.38 c 1.88,0.26 3.04,0.75 3.94,1.62 1.1,1.04 1.59,2.49 1.59,4.35 0,4 -3.3,6.26 -7.65,6.26 -3.13,0 -5.51,-0.67 -7.54,-2.72 l 2.61,-2.61 c 1.3,1.3 3.07,1.74 4.96,1.74 2.41,0 3.68,-0.93 3.68,-2.58 0,-0.7 -0.2,-1.28 -0.64,-1.71 -0.41,-0.38 -0.87,-0.55 -1.85,-0.7 l -2.46,-0.38 c -1.74,-0.26 -3.07,-0.81 -4,-1.71 -0.99,-0.96 -1.48,-2.32 -1.48,-4.06 0,-3.68 2.72,-6.26 7.19,-6.26 2.85,0 4.91,0.7 6.67,2.41 z"
   id="path30" />
		<path
   class="st0"
   d="m 605.94,301.16 7.33,12.43 h -4.72 l -5.3,-9.39 -2.7,3.19 v 6.2 h -4.03 v -20.64 h 4.03 v 8.99 l 7.3,-8.99 h 4.93 z"
   id="path31" />
		<path
   class="st0"
   d="m 631.85,313.59 h -4.23 l -1.22,-3.65 h -7.3 l -1.25,3.65 h -4.23 l 7.54,-20.64 h 3.16 z m -11.65,-7.04 h 5.07 l -2.52,-7.48 z"
   id="path32" />
		<path
   class="st0"
   d="m 328.08,330.61 h -3.85 v -3.07 h 3.85 z m -0.03,17.68 h -3.77 v -14.67 h 3.77 z"
   id="path33" />
		<path
   class="st0"
   d="m 352.77,334.09 h -4.06 c -0.46,-1.97 -1.65,-3.01 -3.71,-3.01 -1.1,0 -1.97,0.43 -2.55,1.1 -0.78,0.87 -1.01,1.85 -1.01,5.8 0,3.95 0.23,4.96 1.01,5.83 0.58,0.67 1.45,1.07 2.55,1.07 1.25,0 2.23,-0.44 2.87,-1.16 0.67,-0.75 0.93,-1.68 0.93,-2.75 v -0.75 H 345 v -3.39 h 7.8 v 3.01 c 0,2.99 -0.52,4.75 -1.97,6.29 -1.65,1.71 -3.62,2.35 -5.83,2.35 -2.35,0 -4.09,-0.78 -5.51,-2.17 -2.06,-2.06 -2.09,-4.38 -2.09,-8.32 0,-3.94 0.03,-6.26 2.09,-8.32 1.42,-1.39 3.16,-2.17 5.51,-2.17 4.82,-0.02 7.25,3.11 7.77,6.59 z"
   id="path34" />
		<path
   class="st0"
   d="m 368.8,329.65 c 2.06,2.03 2.09,4.38 2.09,8.32 0,3.94 -0.03,6.29 -2.09,8.32 -1.42,1.39 -3.16,2.17 -5.54,2.17 -2.38,0 -4.12,-0.78 -5.54,-2.17 -2.06,-2.06 -2.09,-4.38 -2.09,-8.32 0,-3.94 0.03,-6.26 2.09,-8.32 1.42,-1.39 3.16,-2.17 5.54,-2.17 2.38,0 4.12,0.78 5.54,2.17 z m -8.11,2.53 c -0.78,0.87 -1.01,1.85 -1.01,5.8 0,3.95 0.23,4.9 1.01,5.77 0.58,0.67 1.48,1.13 2.58,1.13 1.1,0 2,-0.46 2.58,-1.13 0.78,-0.87 1.01,-1.83 1.01,-5.77 0,-3.94 -0.23,-4.93 -1.01,-5.8 -0.58,-0.67 -1.48,-1.1 -2.58,-1.1 -1.11,0 -2,0.43 -2.58,1.1 z"
   id="path35" />
		<path
   class="st0"
   d="m 387.24,329.89 -2.55,2.52 c -1.1,-1.1 -2.35,-1.42 -4.23,-1.42 -2.15,0 -3.19,1.19 -3.19,2.61 0,0.55 0.17,1.07 0.61,1.48 0.41,0.38 1.01,0.67 1.88,0.78 l 2.46,0.38 c 1.88,0.26 3.04,0.75 3.94,1.62 1.1,1.04 1.59,2.49 1.59,4.35 0,4 -3.3,6.26 -7.65,6.26 -3.13,0 -5.51,-0.67 -7.54,-2.72 l 2.61,-2.61 c 1.3,1.3 3.07,1.74 4.96,1.74 2.41,0 3.68,-0.93 3.68,-2.58 0,-0.7 -0.2,-1.28 -0.64,-1.71 -0.41,-0.38 -0.87,-0.55 -1.85,-0.7 l -2.46,-0.38 c -1.74,-0.26 -3.07,-0.81 -4,-1.71 -0.99,-0.96 -1.48,-2.32 -1.48,-4.06 0,-3.68 2.72,-6.26 7.19,-6.26 2.84,0 4.9,0.7 6.67,2.41 z"
   id="path36" />
		<path
   class="st0"
   d="m 398.97,327.65 c 4.29,0 6.81,2.93 6.81,6.43 0,3.51 -2.52,6.43 -6.81,6.43 H 395 v 7.77 h -4.03 v -20.64 h 8 z m -3.97,3.6 v 5.68 h 3.77 c 1.83,0 2.99,-1.16 2.99,-2.84 0,-1.71 -1.16,-2.84 -2.99,-2.84 z"
   id="path37" />
		<path
   class="st0"
   d="m 421.06,329.65 c 2.06,2.03 2.09,4.38 2.09,8.32 0,3.94 -0.03,6.29 -2.09,8.32 -1.42,1.39 -3.16,2.17 -5.54,2.17 -2.38,0 -4.12,-0.78 -5.54,-2.17 -2.06,-2.06 -2.09,-4.38 -2.09,-8.32 0,-3.94 0.03,-6.26 2.09,-8.32 1.42,-1.39 3.16,-2.17 5.54,-2.17 2.38,0 4.12,0.78 5.54,2.17 z m -8.12,2.53 c -0.78,0.87 -1.01,1.85 -1.01,5.8 0,3.95 0.23,4.9 1.01,5.77 0.58,0.67 1.48,1.13 2.58,1.13 1.1,0 2,-0.46 2.58,-1.13 0.78,-0.87 1.01,-1.83 1.01,-5.77 0,-3.94 -0.23,-4.93 -1.01,-5.8 -0.58,-0.67 -1.48,-1.1 -2.58,-1.1 -1.1,0 -2,0.43 -2.58,1.1 z"
   id="path38" />
		<path
   class="st0"
   d="m 434.13,327.65 c 2.81,0 4.81,1.04 6.23,3.01 1.28,1.77 1.3,3.88 1.3,7.3 0,3.42 -0.03,5.54 -1.3,7.3 -1.42,1.97 -3.42,3.01 -6.23,3.01 h -7.45 v -20.64 h 7.45 z m -3.42,3.6 v 13.45 h 3.07 c 1.36,0 2.35,-0.43 3.01,-1.27 0.75,-0.9 0.84,-2.17 0.84,-5.45 0,-3.25 -0.09,-4.55 -0.84,-5.45 -0.67,-0.84 -1.65,-1.28 -3.01,-1.28 z"
   id="path39" />
		<path
   class="st0"
   d="m 460.85,348.29 h -4.23 l -1.22,-3.65 h -7.3 l -1.25,3.65 h -4.23 l 7.54,-20.64 h 3.16 z m -11.65,-7.04 h 5.07 l -2.52,-7.48 z"
   id="path40" />
		<path
   class="st0"
   d="m 470.88,327.65 c 4.23,0 6.7,2.87 6.7,6.32 0,2.9 -1.77,4.72 -3.77,5.42 l 4.61,8.9 h -4.67 l -4.03,-8.23 h -2.9 v 8.23 h -4.03 v -20.64 z m -4.06,3.6 v 5.42 h 3.83 c 1.77,0 2.9,-1.1 2.9,-2.72 0,-1.59 -1.13,-2.7 -2.9,-2.7 z"
   id="path41" />
		<path
   class="st0"
   d="m 490.59,335.86 7.33,12.43 h -4.72 l -5.3,-9.39 -2.7,3.19 v 6.2 h -4.03 v -20.64 h 4.03 v 8.99 l 7.3,-8.99 h 4.93 z"
   id="path42" />
		<path
   class="st0"
   d="m 503.92,348.29 h -4.03 v -20.64 h 4.03 z"
   id="path43" />
		<path
   class="st0"
   d="m 531.95,348.29 h -3.39 l -3.8,-12.49 -3.77,12.49 h -3.36 l -5.54,-20.64 h 4.2 l 3.19,12.98 3.8,-12.98 h 2.99 l 3.8,12.98 3.19,-12.98 h 4.2 z"
   id="path44" />
		<path
   class="st0"
   d="m 551.71,329.65 c 2.06,2.03 2.09,4.38 2.09,8.32 0,3.94 -0.03,6.29 -2.09,8.32 -1.42,1.39 -3.16,2.17 -5.54,2.17 -2.38,0 -4.12,-0.78 -5.54,-2.17 -2.06,-2.06 -2.09,-4.38 -2.09,-8.32 0,-3.94 0.03,-6.26 2.09,-8.32 1.42,-1.39 3.16,-2.17 5.54,-2.17 2.38,0 4.12,0.78 5.54,2.17 z m -8.11,2.53 c -0.78,0.87 -1.01,1.85 -1.01,5.8 0,3.95 0.23,4.9 1.01,5.77 0.58,0.67 1.48,1.13 2.58,1.13 1.1,0 2,-0.46 2.58,-1.13 0.78,-0.87 1.01,-1.83 1.01,-5.77 0,-3.94 -0.23,-4.93 -1.01,-5.8 -0.58,-0.67 -1.48,-1.1 -2.58,-1.1 -1.1,0 -2,0.43 -2.58,1.1 z"
   id="path45" />
		<path
   class="st0"
   d="m 564.78,327.65 c 2.81,0 4.81,1.04 6.23,3.01 1.28,1.77 1.3,3.88 1.3,7.3 0,3.42 -0.03,5.54 -1.3,7.3 -1.42,1.97 -3.42,3.01 -6.23,3.01 h -7.45 v -20.64 h 7.45 z m -3.42,3.6 v 13.45 h 3.07 c 1.36,0 2.35,-0.43 3.01,-1.27 0.75,-0.9 0.84,-2.17 0.84,-5.45 0,-3.25 -0.09,-4.55 -0.84,-5.45 -0.67,-0.84 -1.65,-1.28 -3.01,-1.28 z"
   id="path46" />
		<path
   class="st0"
   d="m 591.65,348.29 h -3.57 l -8.2,-12.61 v 12.61 h -4.03 v -20.64 h 3.59 l 8.17,12.61 v -12.61 h 4.03 v 20.64 z"
   id="path47" />
		<path
   class="st0"
   d="m 609.51,331.25 h -9.56 v 4.84 h 8.17 v 3.59 h -8.17 v 5.01 h 9.56 v 3.59 h -13.59 v -20.64 h 13.59 z"
   id="path48" />
		<path
   class="st0"
   d="m 623.27,341.51 c 0,4.58 -3.42,6.96 -7.27,6.96 -2.23,0 -3.77,-0.58 -5.3,-2.12 l 2.67,-2.64 c 0.7,0.7 1.3,1.16 2.64,1.16 2,0 3.25,-1.16 3.25,-3.54 v -13.68 h 4.03 v 13.86 z"
   id="path49" />
	</g>
	<g
   id="g51">
		<linearGradient
   id="SVGID_1_"
   gradientUnits="userSpaceOnUse"
   x1="256.83179"
   y1="348.3035"
   x2="256.83179"
   y2="257.72089">
			<stop
   offset="0"
   style="stop-color:#0099CC"
   id="stop49" />
			<stop
   offset="0.9986"
   style="stop-color:#2DB34A"
   id="stop50" />
		</linearGradient>
		<path
   class="st1"
   d="m 276.1,338.55 h 15.77 v 9.75 h -25.52 c 0,-24.17 0,-49.72 0,-52.2 0,-4.31 0.74,-5.32 2.31,-6.86 l 9.99,-9.71 14.42,14.42 c 0,0 -12.81,12.48 -13.01,12.68 -1.44,1.41 -3.96,4.67 -3.96,11.97 z m -41.08,-59.01 -14.42,14.42 c 0,0 12.81,12.48 13.01,12.68 1.44,1.41 3.96,4.67 3.96,11.97 v 19.95 H 221.8 v 9.75 h 25.52 c 0,-24.17 0,-49.72 0,-52.2 0,-4.31 -0.74,-5.32 -2.31,-6.86 z m 21.81,-21.82 -18.33,18.33 c 2.3,2.1 7.99,7.31 9.51,8.71 2.77,2.56 3.6,4 3.84,5.9 0,19.74 0,57.64 0,57.64 h 9.96 c 0,0 0,-37.9 0,-57.64 0.24,-1.9 1.07,-3.34 3.84,-5.9 1.52,-1.41 7.21,-6.62 9.51,-8.71 z"
   id="path50"
   style="fill:url(#SVGID_1_)" />
		<path
   class="st2"
   d="M 232.82,333.77 V 318.6 c 0,-3.99 -0.87,-6.96 -2.53,-8.58 L 213.84,294 l 42.99,-43 42.99,43 -16.45,16.03 c -1.65,1.62 -2.53,4.58 -2.53,8.58 v 15.17 c 13.64,-8.18 22.78,-23.1 22.78,-40.17 0,-25.84 -20.95,-46.79 -46.79,-46.79 -25.84,0 -46.79,20.95 -46.79,46.79 0,17.06 9.13,31.99 22.78,40.16 z"
   id="path51" />
	</g>
</g>
</svg>
