<?xml version="1.0" encoding="UTF-8" standalone="no"?>
<svg
   width="421.81"
   height="101.66"
   version="1.1"
   viewBox="0 0 421.81 101.66"
   xml:space="preserve"
   id="svg4"
   sodipodi:docname="NFOSiGW_logo_white.svg"
   inkscape:version="1.4.3 (0d15f75042, 2025-12-25)"
   xmlns:inkscape="http://www.inkscape.org/namespaces/inkscape"
   xmlns:sodipodi="http://sodipodi.sourceforge.net/DTD/sodipodi-0.dtd"
   xmlns="http://www.w3.org/2000/svg"
   xmlns:svg="http://www.w3.org/2000/svg"><sodipodi:namedview
   id="namedview4"
   pagecolor="#ffffff"
   bordercolor="#c7c7c7"
   borderopacity="0.24705882"
   inkscape:showpageshadow="2"
   inkscape:pageopacity="0.0"
   inkscape:pagecheckerboard="true"
   inkscape:deskcolor="#d1d1d1"
   inkscape:zoom="2.740418"
   inkscape:cx="130.2721"
   inkscape:cy="30.104897"
   inkscape:window-width="1894"
   inkscape:window-height="1017"
   inkscape:window-x="0"
   inkscape:window-y="0"
   inkscape:window-maximized="1"
   inkscape:current-layer="svg4" /><defs
   id="defs2">
	
	

		
		
		
		
		
		
		
		
		
		
		
		
		
		
		
		
		
		
		
		
		
		
		
		
		
		
		
		
		
		
		
		
		
		
		
		
		
		
		
		
		
		
		
		
		
		
		
		
		
	
		<linearGradient
   id="a"
   x1="256.83"
   x2="256.83"
   y1="348.3"
   y2="257.72"
   gradientTransform="translate(-210.04,-246.82)"
   gradientUnits="userSpaceOnUse">
			<stop
   stop-color="#09c"
   offset="0"
   id="stop1" />
			<stop
   stop-color="#2DB34A"
   offset=".9986"
   id="stop2" />
		</linearGradient>
		
		
	</defs>
<style
   type="text/css"
   id="style2">
	.st0{fill:#4D4D4D;}
	.st1{fill:url(#a);}
	.st2{fill:#0099CC;}
</style>
<g
   id="g4"
   style="fill:#ffffff;fill-opacity:1"><path
     class="st0"
     d="m177.48 11.26c-2.38 0-4.121 0.77992-5.541 2.1699-2.06 2.06-2.0898 4.3803-2.0898 8.3203s0.02984 6.2603 2.0898 8.3203c1.42 1.39 3.161 2.1699 5.541 2.1699s4.1191-0.77992 5.5391-2.1699c2.06-2.03 2.0898-4.3803 2.0898-8.3203s-0.02985-6.2903-2.0898-8.3203c-1.42-1.39-3.1591-2.1699-5.5391-2.1699zm36.609 0c-2.38 0-4.1191 0.77992-5.5391 2.1699-2.06 2.06-2.0898 4.3803-2.0898 8.3203s0.02984 6.2603 2.0898 8.3203c1.42 1.39 3.1591 2.1699 5.5391 2.1699s4.121-0.77992 5.541-2.1699c2.06-2.03 2.0898-4.3803 2.0898-8.3203s-0.02984-6.2903-2.0898-8.3203c-1.42-1.39-3.161-2.1699-5.541-2.1699zm156.74 0c-4.47 0-7.1895 2.5798-7.1895 6.2598 0 1.74 0.48852 3.1005 1.4785 4.0605 0.93 0.9 2.26 1.449 4 1.709l2.4609 0.38086c0.98 0.15 1.4396 0.31922 1.8496 0.69922 0.44 0.43 0.64062 1.0109 0.64062 1.7109 0 1.65-1.2697 2.5801-3.6797 2.5801-1.89 0-3.6609-0.44023-4.9609-1.7402l-2.6094 2.6094c2.03 2.05 4.4091 2.7207 7.5391 2.7207 4.35 0 7.6504-2.2598 7.6504-6.2598 0-1.86-0.48985-3.3096-1.5898-4.3496-0.9-0.87-2.0594-1.3611-3.9394-1.6211l-2.4609-0.37891c-0.87-0.11-1.4689-0.40125-1.8789-0.78125-0.43999-0.41-0.61132-0.92852-0.61132-1.4785 0-1.42 1.0414-2.6113 3.1914-2.6113 1.88 0 3.1285 0.31992 4.2285 1.4199l2.5508-2.5195c-1.77-1.71-3.8299-2.4102-6.6699-2.4102zm-182.19 0.15039v20.641h7.4492c2.81 0 4.8105-1.0417 6.2305-3.0117 1.27-1.76 1.2988-3.8788 1.2988-7.2988s-0.01883-5.5308-1.2988-7.3008c-1.42-1.97-3.4205-3.0098-6.2305-3.0098v-0.019532h-7.4492zm138.74 0v20.641h7.4492c2.81 0 4.8105-1.0417 6.2305-3.0117 1.27-1.76 1.2988-3.8788 1.2988-7.2988s-0.01883-5.5308-1.2988-7.3008c-1.42-1.97-3.4205-3.0098-6.2305-3.0098v-0.019532h-7.4492zm-212.84 0.019532v20.641h4.0312v-12.609l8.1992 12.609h3.5606v-20.641h-4.0293v12.609l-8.1699-12.609h-3.5918zm25.301 0-7.5391 20.641h4.2285l1.25-3.6504h7.3008l1.2207 3.6504h4.2285l-7.5293-20.641h-3.1602zm12.631 0v20.641h4.0293v-8.2305h2.9004l4.0293 8.2305h4.6699l-4.6094-8.9004c2-0.7 3.7695-2.5199 3.7695-5.4199 0-3.45-2.4692-6.3203-6.6992-6.3203h-8.0898zm70.34 0 5.5391 20.641h3.3613l3.7695-12.49 3.7988 12.49h3.3906l5.3965-20.219 5.9629 11.789v8.4297h4.0312v-8.4297l6.209-12.201h-4.3789l-3.8008 8.3203-3.8496-8.3203h-4.0625l0.00196-0.009765h-4.1992l-3.1914 12.98-3.7988-12.98h-2.9902l-3.8008 12.98-3.1894-12.98h-4.1992zm49.219 0v20.641h4.0312v-8.3809h8.1699v-3.5898h-8.1699v-5.0703h9.5586v-3.5996h-13.59zm35.301 0v20.641h4.0293v-12.609l8.2012 12.609h3.5586v-20.641h-4.0293v12.609l-8.1699-12.609h-3.5898zm73.029 0v3.5898h8.4102l-8.7793 13.85v3.1914h13.561v-3.5898h-8.8106l8.8106-13.852v-3.1895h-13.191zm-92.119 0.009765v13.561c0 4.38 3.3306 7.25 7.5606 7.25 4.26 0 7.6191-2.87 7.6191-7.25h0.00977v-13.561h-4.0293v13.42c0 2.35-1.4098 3.8008-3.5898 3.8008s-3.541-1.4508-3.541-3.8008v-13.42h-4.0293zm57.35 0v13.561c0 4.38 3.3306 7.25 7.5606 7.25 4.26 0 7.6191-2.87 7.6191-7.25h0.00977v-13.561h-4.0293v13.42c0 2.35-1.4098 3.8008-3.5898 3.8008s-3.541-1.4508-3.541-3.8008v-13.42h-4.0293zm-168.11 3.4199c1.1 0 2.0001 0.43156 2.5801 1.1016 0.78 0.87 1.0098 1.8588 1.0098 5.7988s-0.22976 4.8995-1.0098 5.7695c-0.58 0.67-1.4801 1.1309-2.5801 1.1309s-2.0001-0.46086-2.5801-1.1309c-0.78-0.87-1.0098-1.8195-1.0098-5.7695s0.22977-4.9288 1.0098-5.7988c0.59-0.67 1.4801-1.1116 2.5801-1.1016zm36.609 0c1.1 0 2.0001 0.43156 2.5801 1.1016 0.78 0.87 1.0098 1.8588 1.0098 5.7988s-0.22977 4.8995-1.0098 5.7695c-0.58 0.67-1.4801 1.1309-2.5801 1.1309s-2.0001-0.46086-2.5801-1.1309c-0.78-0.87-1.0098-1.8195-1.0098-5.7695s0.22977-4.9288 1.0098-5.7988c0.58-0.67 1.4801-1.1016 2.5801-1.1016zm-57.59 0.16992h3.8301c1.77 0 2.9004 1.1112 2.9004 2.7012 0 1.62-1.1304 2.7188-2.9004 2.7188h-3.8301v-5.4199zm36.17 0.009765h3.0703c1.36 0 2.3398 0.43148 3.0098 1.2715 0.75 0.9 0.83984 2.1992 0.83984 5.4492 0 3.28-0.08984 4.5512-0.83984 5.4512-0.66 0.84-1.6498 1.2695-3.0098 1.2695h-3.0703v-13.441zm138.74 0h3.0703c1.36 0 2.3398 0.43148 3.0098 1.2715 0.75 0.9 0.83985 2.1992 0.83985 5.4492 0 3.28-0.08985 4.5512-0.83985 5.4512-0.66 0.84-1.6498 1.2695-3.0098 1.2695h-3.0703v-13.441zm-189.98 2.5117 2.5195 7.4785h-5.0684l2.5488-7.4785zm112.36 21.648-1.8496 4.9316h2.5215l3.2988-4.9316h-3.9707zm-132.33 6.7617c-2.38 0-4.121 0.77992-5.541 2.1699-2.06 2.06-2.0898 4.3784-2.0898 8.3184s0.02984 6.2603 2.0898 8.3203c1.42 1.39 3.161 2.1699 5.541 2.1699s4.1191-0.77992 5.5391-2.1699c2.06-2.03 2.0898-4.3803 2.0898-8.3203s-0.02984-6.2884-2.0898-8.3184c-1.42-1.39-3.1591-2.1699-5.5391-2.1699zm18.09 0c-2.38-1e-6 -4.121 0.77992-5.541 2.1699-2.06 2.06-2.0898 4.3784-2.0898 8.3184s0.02985 6.2603 2.0898 8.3203c1.42 1.39 3.161 2.1699 5.541 2.1699 3.85 0 6.8386-2.1995 7.5586-6.5195h-4.0898c-0.41 1.68-1.4805 2.9297-3.4805 2.9297-1.1 0-1.9981-0.40031-2.5781-1.0703-0.75-0.87-1.0117-1.8801-1.0117-5.8301s0.26172-4.9601 1.0117-5.8301c0.58-0.66 1.4781-1.0684 2.5781-1.0684 2 0 3.0705 1.2497 3.4805 2.9297h4.0898c-0.72-4.32-3.7086-6.5195-7.5586-6.5195zm54.77 0c-2.38 0-4.121 0.77992-5.541 2.1699-2.06 2.06-2.0898 4.3784-2.0898 8.3184s0.02985 6.2603 2.0898 8.3203c1.42 1.39 3.161 2.1699 5.541 2.1699s4.1191-0.77992 5.5391-2.1699c2.06-2.03 2.0898-4.3803 2.0898-8.3203s-0.02984-6.2884-2.0898-8.3184c-1.42-1.39-3.1591-2.1699-5.5391-2.1699zm59.209 0c-4.47 0-7.1895 2.5798-7.1895 6.2598 0 1.74 0.49047 3.0986 1.4805 4.0586 0.93 0.9 2.26 1.4509 4 1.7109l2.459 0.37891c0.98 0.15 1.4416 0.32117 1.8516 0.70117 0.44 0.43 0.63867 1.009 0.63867 1.709 0 1.65-1.2697 2.5801-3.6797 2.5801-1.89 0-3.659-0.44023-4.959-1.7402l-2.6113 2.6113c2.03 2.05 4.411 2.7188 7.541 2.7188 4.35 0 7.6504-2.2598 7.6504-6.2598 0-1.86-0.4918-3.3096-1.5918-4.3496-0.9-0.87-2.0594-1.3591-3.9394-1.6191l-2.459-0.38086c-0.87-0.11-1.4709-0.3993-1.8809-0.7793-0.44-0.41-0.60937-0.93047-0.60937-1.4805 0-1.42 1.0394-2.6094 3.1894-2.6094 1.88 0 3.1305 0.31992 4.2305 1.4199l2.5488-2.5215c-1.77-1.71-3.8199-2.4082-6.6699-2.4082zm35.42 0c-2.38 0-4.1191 0.77992-5.5391 2.1699-2.06 2.06-2.0898 4.3784-2.0898 8.3184s0.02985 6.2603 2.0898 8.3203c1.42 1.39 3.1591 2.1699 5.5391 2.1699s4.121-0.77992 5.541-2.1699c2.06-2.03 2.0898-4.3803 2.0898-8.3203s-0.02985-6.2884-2.0898-8.3184c-1.42-1.39-3.161-2.1699-5.541-2.1699zm36.602 0c-2.38 0-4.121 0.77992-5.541 2.1699-2.06 2.06-2.0898 4.3784-2.0898 8.3184s0.02985 6.2603 2.0898 8.3203c1.42 1.39 3.161 2.1699 5.541 2.1699s4.1191-0.77992 5.5391-2.1699c2.06-2.03 2.0898-4.3803 2.0898-8.3203s-0.02985-6.2884-2.0898-8.3184c-1.41-1.39-3.1491-2.1699-5.5391-2.1699zm50.52 0c-4.47 0-7.1894 2.5798-7.1894 6.2598 0 1.74 0.48851 3.0986 1.4785 4.0586 0.93 0.9 2.26 1.4509 4 1.7109l2.4609 0.37891c0.98 0.15 1.4396 0.32117 1.8496 0.70117 0.44 0.43 0.64063 1.009 0.64063 1.709 0 1.65-1.2697 2.5801-3.6797 2.5801-1.89 0-3.6609-0.44023-4.9609-1.7402l-2.6094 2.6113c2.03 2.05 4.4091 2.7188 7.5391 2.7188 4.35 0 7.6504-2.2598 7.6504-6.2598 0-1.86-0.48984-3.3096-1.5898-4.3496-0.9-0.87-2.0595-1.3591-3.9395-1.6191l-2.4609-0.38086c-0.87-0.11-1.4689-0.3993-1.8789-0.7793-0.44-0.41-0.61133-0.93047-0.61133-1.4805 0-1.42 1.0414-2.6094 3.1914-2.6094 1.88 0 3.1285 0.31992 4.2285 1.4199l2.5508-2.5215c-1.76-1.71-3.8199-2.4082-6.6699-2.4082zm-75.961 0.14844v20.641h7.4512c2.81 0 4.8085-1.0398 6.2285-3.0098 1.27-1.76 1.3008-3.8808 1.3008-7.3008s-0.02078-5.5288-1.3008-7.2988c-1.42-1.97-3.4185-3.0098-6.2285-3.0098v-0.021484h-7.4512zm-150.1 0.021484v20.639h4.0293v-8.6387h7.0117v8.6387h4.0293v-20.639h-4.0293v8.4082h-7.0117v-8.4082h-4.0293zm19.301 0v20.639h4.0293v-8.2305h2.9004l4.0293 8.2305h4.6699l-4.6094-8.9004c2-0.7 3.7695-2.5199 3.7695-5.4199 0-3.45-2.4692-6.3184-6.6992-6.3184h-8.0898zm36.18 0v20.639h4.0293v-12.609l8.2012 12.609h3.5586v-20.639h-4.0293v12.609l-8.1699-12.609h-3.5898zm58.449 0v20.639h4.0312v-8.2305h2.8984l4.0312 8.2305h4.6699l-4.6094-8.9004c2-0.7 3.7695-2.5199 3.7695-5.4199 0-3.45-2.4712-6.3184-6.7012-6.3184h-8.0898zm70.34 0 5.541 20.639h3.3594l3.7695-12.49 3.8008 12.49h3.3906l5.5098-20.639h-4.2012l-3.1894 12.979-3.7988-12.979h-2.9902l-3.8008 12.979-3.1894-12.979h-4.2012zm27.361 0v20.639h4.0293v-20.639h-4.0293zm24.84 0v20.639h4.0293v-6.1992l2.7012-3.1895 5.2988 9.3887h4.7207l-7.3301-12.43 6.8398-8.209h-4.9297l-7.3008 8.9883v-8.9883h-4.0293zm24.639 0-7.5391 20.639h4.2305l1.25-3.6504h7.2988l1.2207 3.6504h4.2305l-7.5312-20.639h-3.1602zm-187.9 0.009766 6.1699 12.199v8.4297h4.0293v-8.4297l6.2109-12.199h-4.3809l-3.8008 8.3203-3.8496-8.3203h-4.3789zm-101.76 3.4199c1.1 0 1.9981 0.42961 2.5781 1.0996 0.78 0.87 1.0117 1.8608 1.0117 5.8008 0 3.94-0.23172 4.8995-1.0117 5.7695-0.58 0.67-1.4781 1.1289-2.5781 1.1289s-2.0001-0.45891-2.5801-1.1289c-0.78-0.87-1.0117-1.8195-1.0117-5.7695 0-3.95 0.23172-4.9308 1.0117-5.8008 0.58-0.67 1.4801-1.0996 2.5801-1.0996zm72.859 0c1.1 0 2.0001 0.42961 2.5801 1.0996 0.78 0.87 1.0098 1.8608 1.0098 5.8008 0 3.94-0.22977 4.8995-1.0098 5.7695-0.58 0.67-1.4801 1.1289-2.5801 1.1289s-2.0001-0.45891-2.5801-1.1289c-0.78-0.87-1.0098-1.8195-1.0098-5.7695 0-3.95 0.22976-4.9308 1.0098-5.8008 0.58-0.67 1.4801-1.0996 2.5801-1.0996zm94.629 0c1.1 0 2.0001 0.42961 2.5801 1.0996 0.78 0.87 1.0098 1.8608 1.0098 5.8008 0 3.94-0.22976 4.8995-1.0098 5.7695-0.58 0.67-1.4801 1.1289-2.5801 1.1289s-2.0001-0.45891-2.5801-1.1289c-0.78-0.87-1.0098-1.8195-1.0098-5.7695 0-3.95 0.22976-4.9308 1.0098-5.8008 0.58-0.67 1.4801-1.1096 2.5801-1.0996zm36.611 0c1.1 0 2.0001 0.42961 2.5801 1.0996 0.78 0.87 1.0098 1.8608 1.0098 5.8008 0 3.94-0.22977 4.8995-1.0098 5.7695-0.57999 0.67-1.4801 1.1289-2.5801 1.1289s-2.0001-0.45891-2.5801-1.1289c-0.78-0.87-1.0098-1.8195-1.0098-5.7695 0-3.95 0.22977-4.9308 1.0098-5.8008 0.58-0.67 1.4801-1.1096 2.5801-1.0996zm-152.22 0.16992h3.8301c1.77 0 2.9004 1.1092 2.9004 2.6992 0 1.62-1.1304 2.7207-2.9004 2.7207h-3.8301v-5.4199zm94.631 0h3.8301c1.77 0 2.8984 1.1092 2.8984 2.6992 0 1.62-1.1284 2.7207-2.8984 2.7207h-3.8301v-5.4199zm36.17 0.009765h3.0703c1.36 0 2.3398 0.42953 3.0098 1.2695 0.75 0.9 0.83985 2.2012 0.83985 5.4512 0 3.28-0.08985 4.5492-0.83985 5.4492-0.66 0.84-1.6498 1.2695-3.0098 1.2695h-3.0703v-13.439zm108.57 2.5098 2.5195 7.4805h-5.0703l2.5508-7.4805zm-259.49 28.41c-2.38 0-4.121 0.77992-5.541 2.1699-2.06 2.06-2.0898 4.3803-2.0898 8.3203s0.02985 6.2603 2.0898 8.3203c1.42 1.39 3.161 2.1699 5.541 2.1699s4.1191-0.77992 5.5391-2.1699c2.06-2.03 2.0898-4.3803 2.0898-8.3203s-0.02984-6.2903-2.0898-8.3203c-1.42-1.39-3.1591-2.1699-5.5391-2.1699zm17.309 0c-4.47 0-7.1895 2.5798-7.1895 6.2598 0 1.74 0.49047 3.1005 1.4805 4.0605 0.93 0.9 2.26 1.449 4 1.709l2.459 0.38086c0.98 0.15 1.4416 0.31922 1.8516 0.69922 0.44 0.43 0.63867 1.0109 0.63867 1.7109 0 1.65-1.2697 2.5801-3.6797 2.5801-1.89 0-3.659-0.44024-4.959-1.7402l-2.6113 2.6094c2.03 2.05 4.411 2.7207 7.541 2.7207 4.35 0 7.6504-2.2598 7.6504-6.2598 0-1.86-0.4918-3.3116-1.5918-4.3516-0.9-0.87-2.0594-1.3591-3.9394-1.6191l-2.459-0.38086c-0.87-0.11-1.4709-0.3993-1.8809-0.7793-0.44-0.41-0.60937-0.93047-0.60937-1.4805 0-1.42 1.0394-2.6094 3.1894-2.6094 1.88 0 3.1305 0.31992 4.2305 1.4199l2.5488-2.5195c-1.77-1.71-3.8299-2.4102-6.6699-2.4102zm34.951 0c-2.38 0-4.121 0.77992-5.541 2.1699-2.06 2.06-2.0898 4.3803-2.0898 8.3203s0.02984 6.2603 2.0898 8.3203c1.42 1.39 3.161 2.1699 5.541 2.1699s4.1191-0.77992 5.5391-2.1699c2.06-2.03 2.0898-4.3803 2.0898-8.3203s-0.02985-6.2903-2.0898-8.3203c-1.42-1.39-3.1591-2.1699-5.5391-2.1699zm130.65 0c-2.38 0-4.121 0.77992-5.541 2.1699-2.06 2.06-2.0898 4.3803-2.0898 8.3203s0.02984 6.2603 2.0898 8.3203c1.42 1.39 3.161 2.1699 5.541 2.1699s4.1191-0.77992 5.5391-2.1699c2.06-2.03 2.0898-4.3803 2.0898-8.3203s-0.02985-6.2903-2.0898-8.3203c-1.42-1.39-3.1591-2.1699-5.5391-2.1699zm-201.17 0.019532c-2.35-1e-6 -4.0917 0.77992-5.5117 2.1699-2.06 2.06-2.0898 4.3803-2.0898 8.3203s0.02984 6.2603 2.0898 8.3203c1.42 1.39 3.1617 2.1699 5.5117 2.1699 2.21 0 4.1781-0.63961 5.8281-2.3496 1.45-1.54 1.9707-3.301 1.9707-6.291v-3.0098h-7.7988v3.3906h3.7988v0.75c0 1.07-0.25969 2-0.92969 2.75-0.64 0.72-1.6191 1.1602-2.8691 1.1602-1.1 0-1.9708-0.40031-2.5508-1.0703-0.78-0.87-1.0098-1.8801-1.0098-5.8301s0.22977-4.9308 1.0098-5.8008c0.58-0.67 1.4508-1.0996 2.5508-1.0996 2.06 0 3.249 1.0398 3.709 3.0098h4.0606c-0.52-3.48-2.9495-6.6098-7.7695-6.5898zm-20.771 0.041015v3.0684h3.8496v-3.0684h-3.8496zm102.45 0.089844v20.639h7.4492c2.81 0 4.8105-1.0398 6.2305-3.0098 1.27-1.76 1.2988-3.8788 1.2988-7.2988s-0.01883-5.5308-1.2988-7.3008c-1.42-1.97-3.4205-3.0098-6.2305-3.0098v-0.019531h-7.4492zm130.65 0v20.639h7.4512c2.81 0 4.8105-1.0398 6.2305-3.0098 1.27-1.76 1.2988-3.8788 1.2988-7.2988s-0.01883-5.5308-1.2988-7.3008c-1.42-1.97-3.4205-3.0098-6.2305-3.0098v-0.019531h-7.4512zm-166.36 0.009765v20.641h4.0312v-7.7715h3.9688c4.29 0 6.8105-2.9197 6.8105-6.4297 0-3.5-2.5205-6.4297-6.8105-6.4297v-0.009766h-8zm204.95 0v20.641h13.59v-3.5918h-9.5605v-5.0098h8.1699v-3.5898h-8.1699v-4.8398h9.5605v-3.6094h-13.59zm-145.76 0.009766-7.5391 20.641h4.2305l1.25-3.6504h7.2988l1.2207 3.6504h4.2305l-7.5312-20.641h-3.1602zm12.631 0v20.641h4.0293v-8.2305h2.9004l4.0312 8.2305h4.6699l-4.6113-8.9004c2-0.7 3.7695-2.5199 3.7695-5.4199 0-3.45-2.4692-6.3203-6.6992-6.3203h-8.0898zm18.381 0v20.641h4.0293v-6.2012l2.6992-3.1895 5.3008 9.3906h4.7207l-7.3301-12.432 6.8398-8.209h-4.9297l-7.3008 8.9902v-8.9902h-4.0293zm18.719 0v20.641h4.0312v-20.641h-4.0312zm12.201 0 5.5391 20.641h3.3594l3.7715-12.49 3.7988 12.49h3.3906l5.5098-20.641h-4.1992l-3.1914 12.98-3.7988-12.98h-2.9902l-3.8008 12.98-3.1894-12.98h-4.1992zm63.76 0v20.641h4.0293v-12.611l8.1992 12.611h3.5606v-20.641h-4.0293v12.609l-8.1699-12.609h-3.5898zm43.41 0v13.68c0 2.38-1.25 3.541-3.25 3.541-1.34 0-1.9406-0.46016-2.6406-1.1602l-2.6699 2.6387c1.53 1.54 3.0708 2.1211 5.3008 2.1211 3.85 0 7.2695-2.3809 7.2695-6.9609h0.01953v-13.859h-4.0293zm-255.99 3.4297c1.1 0 2.0001 0.42961 2.5801 1.0996 0.78 0.87 1.0098 1.8608 1.0098 5.8008s-0.22976 4.8995-1.0098 5.7695c-0.58 0.67-1.4801 1.1309-2.5801 1.1309s-2.0001-0.46086-2.5801-1.1309c-0.78-0.87-1.0098-1.8195-1.0098-5.7695s0.22977-4.9308 1.0098-5.8008c0.58-0.67 1.4701-1.0996 2.5801-1.0996zm52.25 0c1.1 0 2.0001 0.42961 2.5801 1.0996 0.78 0.87 1.0098 1.8608 1.0098 5.8008s-0.22976 4.8995-1.0098 5.7695c-0.58 0.67-1.4801 1.1309-2.5801 1.1309s-2.0001-0.46086-2.5801-1.1309c-0.78-0.87-1.0098-1.8195-1.0098-5.7695s0.22977-4.9308 1.0098-5.8008c0.58-0.67 1.4801-1.0996 2.5801-1.0996zm130.66 0c1.1 0 2.0001 0.42961 2.5801 1.0996 0.78 0.87 1.0098 1.8608 1.0098 5.8008s-0.22977 4.8995-1.0098 5.7695c-0.58 0.67-1.4801 1.1309-2.5801 1.1309-1.1 0-2.0001-0.46086-2.5801-1.1309-0.78-0.87-1.0098-1.8195-1.0098-5.7695s0.22977-4.9308 1.0098-5.8008c0.58-0.67 1.4801-1.0996 2.5801-1.0996zm-151.18 0.16992h3.7695c1.83 0 2.9902 1.1298 2.9902 2.8398 0 1.68-1.1602 2.8398-2.9902 2.8398h-3.7695v-5.6797zm35.709 0h3.0703c1.36 0 2.3398 0.44125 3.0098 1.2812 0.75 0.9 0.83984 2.1992 0.83984 5.4492 0 3.28-0.08984 4.5492-0.83984 5.4492-0.66 0.84-1.6498 1.2715-3.0098 1.2715h-3.0703v-13.451zm36.109 0h3.8301c1.77 0 2.9004 1.1112 2.9004 2.7012 0 1.62-1.1304 2.7188-2.9004 2.7188h-3.8301v-5.4199zm94.541 0h3.0703c1.36 0 2.3398 0.44125 3.0098 1.2812 0.75 0.9 0.83984 2.1992 0.83984 5.4492 0 3.28-0.08984 4.5492-0.83984 5.4492-0.66 0.84-1.6498 1.2715-3.0098 1.2715h-3.0703v-13.451zm-237.08 2.3711v14.67h3.7695v-14.67h-3.7695zm127.47 0.14844 2.5195 7.4805h-5.0703l2.5508-7.4805z"
     id="path2"
     style="fill:#ffffff;fill-opacity:1" /><path
     class="st1"
     d="m66.06 91.73h15.77v9.75h-25.52v-52.2c0-4.31 0.74-5.32 2.31-6.86l9.99-9.71 14.42 14.42s-12.81 12.48-13.01 12.68c-1.44 1.41-3.96 4.67-3.96 11.97zm-41.08-59.01-14.42 14.42s12.81 12.48 13.01 12.68c1.44 1.41 3.96 4.67 3.96 11.97v19.95h-15.77v9.75h25.52v-52.2c0-4.31-0.74-5.32-2.31-6.86zm21.81-21.82-18.33 18.33c2.3 2.1 7.99 7.31 9.51 8.71 2.77 2.56 3.6 4 3.84 5.9v57.64h9.96v-57.64c0.24-1.9 1.07-3.34 3.84-5.9 1.52-1.41 7.21-6.62 9.51-8.71z"
     fill="url(#a)"
     id="path3"
     style="fill:#ffffff;fill-opacity:1" /><path
     class="st2"
     d="m22.78 86.95v-15.17c0-3.99-0.87-6.96-2.53-8.58l-16.45-16.02 42.99-43 42.99 43-16.45 16.03c-1.65 1.62-2.53 4.58-2.53 8.58v15.17c13.64-8.18 22.78-23.1 22.78-40.17 0-25.84-20.95-46.79-46.79-46.79s-46.79 20.95-46.79 46.79c0 17.06 9.13 31.99 22.78 40.16z"
     id="path4"
     style="fill:#ffffff;fill-opacity:1" /></g>
</svg>
