<?xml version="1.0" encoding="utf-8"?>
<!-- Generator: Adobe Illustrator 27.6.1, SVG Export Plug-In . SVG Version: 6.00 Build 0)  -->
<svg version="1.1" id="Layer_1" xmlns="http://www.w3.org/2000/svg" xmlns:xlink="http://www.w3.org/1999/xlink" x="0px" y="0px"
	 viewBox="0 0 841.89 595.28" style="enable-background:new 0 0 841.89 595.28;" xml:space="preserve">
<style type="text/css">
	.st0{fill:url(#SVGID_1_);}
	.st1{fill:#0099CC;}
	.st2{fill:#4D4D4D;}
</style>
<g>
	<g>
		<linearGradient id="SVGID_1_" gradientUnits="userSpaceOnUse" x1="243.2554" y1="361.6615" x2="243.2554" y2="271.0789">
			<stop  offset="0" style="stop-color:#0099CC"/>
			<stop  offset="0.9986" style="stop-color:#2DB34A"/>
		</linearGradient>
		<path class="st0" d="M262.52,351.91h15.77v9.75h-25.52c0-24.17,0-49.72,0-52.2c0-4.31,0.74-5.32,2.31-6.86l9.99-9.71l14.42,14.42
			c0,0-12.81,12.48-13.01,12.68c-1.44,1.41-3.96,4.67-3.96,11.97V351.91z M221.44,292.89l-14.42,14.42c0,0,12.81,12.48,13.01,12.68
			c1.44,1.41,3.96,4.67,3.96,11.97v19.95h-15.77v9.75h25.52c0-24.17,0-49.72,0-52.2c0-4.31-0.74-5.32-2.31-6.86L221.44,292.89z
			 M243.26,271.08l-18.33,18.33c2.3,2.1,7.99,7.31,9.51,8.71c2.77,2.56,3.6,4,3.84,5.9c0,19.74,0,57.64,0,57.64h9.96
			c0,0,0-37.9,0-57.64c0.24-1.9,1.07-3.34,3.84-5.9c1.52-1.41,7.21-6.62,9.51-8.71L243.26,271.08z"/>
		<path class="st1" d="M219.24,347.13v-15.17c0-3.99-0.87-6.96-2.53-8.58l-16.45-16.03l42.99-42.99l42.99,42.99l-16.45,16.03
			c-1.65,1.62-2.53,4.58-2.53,8.58v15.17c13.64-8.18,22.78-23.1,22.78-40.17c0-25.84-20.95-46.79-46.79-46.79
			c-25.84,0-46.79,20.95-46.79,46.79C196.46,324.03,205.6,338.95,219.24,347.13z"/>
	</g>
	<g>
		<g>
			<path class="st2" d="M326.79,292.1h-3.56l-8.2-12.6v12.6H311v-20.63h3.59l8.17,12.6v-12.6h4.03V292.1z"/>
			<path class="st2" d="M346.99,292.1h-4.23l-1.22-3.65h-7.3L333,292.1h-4.23l7.53-20.63h3.16L346.99,292.1z M335.34,285.06h5.07
				l-2.52-7.48L335.34,285.06z"/>
			<path class="st2" d="M357.02,271.47c4.23,0,6.69,2.87,6.69,6.32c0,2.9-1.77,4.72-3.77,5.42l4.61,8.9h-4.67l-4.03-8.23h-2.9v8.23
				h-4.03v-20.63H357.02z M352.96,275.07v5.42h3.83c1.77,0,2.9-1.1,2.9-2.72c0-1.59-1.13-2.69-2.9-2.69H352.96z"/>
			<path class="st2" d="M379.48,273.47c2.06,2.03,2.09,4.38,2.09,8.32c0,3.94-0.03,6.29-2.09,8.32c-1.42,1.39-3.16,2.17-5.53,2.17
				c-2.38,0-4.11-0.78-5.53-2.17c-2.06-2.06-2.09-4.38-2.09-8.32c0-3.94,0.03-6.26,2.09-8.32c1.42-1.39,3.16-2.17,5.53-2.17
				C376.32,271.3,378.06,272.08,379.48,273.47z M371.37,275.99c-0.78,0.87-1.01,1.85-1.01,5.8c0,3.94,0.23,4.9,1.01,5.77
				c0.58,0.67,1.48,1.13,2.58,1.13s2-0.46,2.58-1.13c0.78-0.87,1.01-1.83,1.01-5.77c0-3.94-0.23-4.93-1.01-5.8
				c-0.58-0.67-1.48-1.1-2.58-1.1S371.95,275.33,371.37,275.99z"/>
			<path class="st2" d="M392.56,271.47c2.81,0,4.81,1.04,6.23,3.01c1.27,1.77,1.3,3.88,1.3,7.3c0,3.42-0.03,5.53-1.3,7.3
				c-1.42,1.97-3.42,3.01-6.23,3.01h-7.45v-20.63H392.56z M389.14,275.07v13.44h3.07c1.36,0,2.35-0.43,3.01-1.27
				c0.75-0.9,0.84-2.17,0.84-5.45c0-3.25-0.09-4.55-0.84-5.45c-0.67-0.84-1.65-1.27-3.01-1.27H389.14z"/>
			<path class="st2" d="M416.09,273.47c2.06,2.03,2.09,4.38,2.09,8.32c0,3.94-0.03,6.29-2.09,8.32c-1.42,1.39-3.16,2.17-5.54,2.17
				s-4.11-0.78-5.53-2.17c-2.06-2.06-2.09-4.38-2.09-8.32c0-3.94,0.03-6.26,2.09-8.32c1.42-1.39,3.16-2.17,5.53-2.17
				S414.67,272.08,416.09,273.47z M407.97,275.99c-0.78,0.87-1.01,1.85-1.01,5.8c0,3.94,0.23,4.9,1.01,5.77
				c0.58,0.67,1.48,1.13,2.58,1.13c1.1,0,2-0.46,2.58-1.13c0.78-0.87,1.01-1.83,1.01-5.77c0-3.94-0.23-4.93-1.01-5.8
				c-0.58-0.67-1.48-1.1-2.58-1.1C409.45,274.89,408.55,275.33,407.97,275.99z"/>
			<path class="st2" d="M439.13,292.1h-3.39l-3.8-12.49l-3.77,12.49h-3.36l-5.53-20.63h4.2l3.19,12.98l3.8-12.98h2.99l3.8,12.98
				l3.19-12.98h4.2L439.13,292.1z"/>
			<path class="st2" d="M460.23,275.07h-9.56v4.84h8.17v3.59h-8.17v5.01h9.56v3.59h-13.59v-20.63h13.59V275.07z"/>
			<path class="st2" d="M478.26,277.91h-4.06c-0.46-1.97-1.65-3.01-3.71-3.01c-1.1,0-1.97,0.43-2.55,1.1
				c-0.78,0.87-1.01,1.85-1.01,5.8c0,3.94,0.23,4.95,1.01,5.82c0.58,0.67,1.45,1.07,2.55,1.07c1.25,0,2.23-0.43,2.87-1.16
				c0.67-0.75,0.93-1.68,0.93-2.75v-0.75h-3.8v-3.39h7.79v3.01c0,2.98-0.52,4.75-1.97,6.29c-1.65,1.71-3.62,2.35-5.82,2.35
				c-2.35,0-4.09-0.78-5.51-2.17c-2.06-2.06-2.09-4.38-2.09-8.32c0-3.94,0.03-6.26,2.09-8.32c1.42-1.39,3.16-2.17,5.51-2.17
				C475.3,271.3,477.74,274.43,478.26,277.91z"/>
			<path class="st2" d="M494.29,273.47c2.06,2.03,2.09,4.38,2.09,8.32c0,3.94-0.03,6.29-2.09,8.32c-1.42,1.39-3.16,2.17-5.54,2.17
				s-4.11-0.78-5.53-2.17c-2.06-2.06-2.09-4.38-2.09-8.32c0-3.94,0.03-6.26,2.09-8.32c1.42-1.39,3.16-2.17,5.53-2.17
				S492.87,272.08,494.29,273.47z M486.17,275.99c-0.78,0.87-1.01,1.85-1.01,5.8c0,3.94,0.23,4.9,1.01,5.77
				c0.58,0.67,1.48,1.13,2.58,1.13c1.1,0,2-0.46,2.58-1.13c0.78-0.87,1.01-1.83,1.01-5.77c0-3.94-0.23-4.93-1.01-5.8
				c-0.58-0.67-1.48-1.1-2.58-1.1C487.65,274.89,486.75,275.33,486.17,275.99z"/>
			<path class="st2" d="M519.65,275.07h-9.56v5.07h8.17v3.59h-8.17v8.37h-4.03v-20.63h13.59V275.07z"/>
			<path class="st2" d="M537.44,285.03c0,4.38-3.36,7.24-7.62,7.24c-4.23,0-7.56-2.87-7.56-7.24v-13.56h4.03v13.42
				c0,2.35,1.36,3.8,3.54,3.8c2.17,0,3.59-1.45,3.59-3.8v-13.42h4.03V285.03z"/>
			<path class="st2" d="M557.15,292.1h-3.56l-8.2-12.6v12.6h-4.03v-20.63h3.59l8.17,12.6v-12.6h4.03V292.1z"/>
			<path class="st2" d="M568.86,271.47c2.81,0,4.81,1.04,6.23,3.01c1.27,1.77,1.3,3.88,1.3,7.3c0,3.42-0.03,5.53-1.3,7.3
				c-1.42,1.97-3.42,3.01-6.23,3.01h-7.45v-20.63H568.86z M565.44,275.07v13.44h3.07c1.36,0,2.35-0.43,3.01-1.27
				c0.75-0.9,0.84-2.17,0.84-5.45c0-3.25-0.09-4.55-0.84-5.45c-0.67-0.84-1.65-1.27-3.01-1.27H565.44z"/>
			<path class="st2" d="M594.8,285.03c0,4.38-3.36,7.24-7.62,7.24c-4.23,0-7.56-2.87-7.56-7.24v-13.56h4.03v13.42
				c0,2.35,1.36,3.8,3.54,3.8c2.17,0,3.59-1.45,3.59-3.8v-13.42h4.03V285.03z"/>
			<path class="st2" d="M611.52,273.7l-2.55,2.52c-1.1-1.1-2.35-1.42-4.23-1.42c-2.14,0-3.19,1.19-3.19,2.61
				c0,0.55,0.17,1.07,0.61,1.48c0.41,0.38,1.01,0.67,1.88,0.78l2.46,0.38c1.88,0.26,3.04,0.75,3.94,1.62
				c1.1,1.04,1.59,2.49,1.59,4.35c0,4-3.3,6.26-7.65,6.26c-3.13,0-5.5-0.67-7.53-2.72l2.61-2.61c1.3,1.3,3.07,1.74,4.96,1.74
				c2.41,0,3.68-0.93,3.68-2.58c0-0.7-0.2-1.27-0.64-1.71c-0.41-0.38-0.87-0.55-1.85-0.7l-2.46-0.38c-1.74-0.26-3.07-0.81-4-1.71
				c-0.99-0.96-1.48-2.32-1.48-4.06c0-3.68,2.72-6.26,7.19-6.26C607.7,271.3,609.75,271.99,611.52,273.7z"/>
			<path class="st2" d="M627.58,274.66l-8.81,13.85h8.81v3.59h-13.56v-3.19l8.78-13.85h-8.4v-3.59h13.18V274.66z"/>
			<path class="st2" d="M645.43,285.03c0,4.38-3.36,7.24-7.62,7.24c-4.23,0-7.56-2.87-7.56-7.24v-13.56h4.03v13.42
				c0,2.35,1.36,3.8,3.54,3.8c2.17,0,3.59-1.45,3.59-3.8v-13.42h4.03V285.03z"/>
			<path class="st2" d="M323.46,308.17c2.06,2.03,2.09,4.38,2.09,8.32s-0.03,6.29-2.09,8.32c-1.42,1.39-3.16,2.17-5.53,2.17
				c-2.38,0-4.11-0.78-5.53-2.17c-2.06-2.06-2.09-4.38-2.09-8.32s0.03-6.26,2.09-8.32c1.42-1.39,3.16-2.17,5.53-2.17
				C320.3,306,322.04,306.78,323.46,308.17z M315.34,310.69c-0.78,0.87-1.01,1.85-1.01,5.79s0.23,4.9,1.01,5.77
				c0.58,0.67,1.48,1.13,2.58,1.13s2-0.46,2.58-1.13c0.78-0.87,1.01-1.83,1.01-5.77s-0.23-4.93-1.01-5.79
				c-0.58-0.67-1.48-1.1-2.58-1.1S315.92,310.03,315.34,310.69z"/>
			<path class="st2" d="M343.57,312.52h-4.09c-0.41-1.68-1.48-2.93-3.48-2.93c-1.1,0-2,0.41-2.58,1.07
				c-0.75,0.87-1.01,1.88-1.01,5.82s0.26,4.96,1.01,5.82c0.58,0.67,1.48,1.07,2.58,1.07c2,0,3.07-1.25,3.48-2.93h4.09
				c-0.72,4.32-3.71,6.52-7.56,6.52c-2.38,0-4.11-0.78-5.53-2.17c-2.06-2.06-2.09-4.38-2.09-8.32s0.03-6.26,2.09-8.32
				c1.42-1.39,3.16-2.17,5.53-2.17C339.86,306,342.85,308.2,343.57,312.52z"/>
			<path class="st2" d="M361.54,326.8h-4.03v-8.63h-7.01v8.63h-4.03v-20.63h4.03v8.4h7.01v-8.4h4.03V326.8z"/>
			<path class="st2" d="M373.86,306.17c4.23,0,6.69,2.87,6.69,6.32c0,2.9-1.77,4.72-3.77,5.42l4.61,8.9h-4.67l-4.03-8.23h-2.9v8.23
				h-4.03v-20.63H373.86z M369.8,309.77v5.42h3.83c1.77,0,2.9-1.1,2.9-2.72c0-1.59-1.13-2.7-2.9-2.7H369.8z"/>
			<path class="st2" d="M396.32,308.17c2.06,2.03,2.09,4.38,2.09,8.32s-0.03,6.29-2.09,8.32c-1.42,1.39-3.16,2.17-5.53,2.17
				c-2.38,0-4.11-0.78-5.53-2.17c-2.06-2.06-2.09-4.38-2.09-8.32s0.03-6.26,2.09-8.32c1.42-1.39,3.16-2.17,5.53-2.17
				C393.16,306,394.9,306.78,396.32,308.17z M388.21,310.69c-0.78,0.87-1.01,1.85-1.01,5.79s0.23,4.9,1.01,5.77
				c0.58,0.67,1.48,1.13,2.58,1.13s2-0.46,2.58-1.13c0.78-0.87,1.01-1.83,1.01-5.77s-0.23-4.93-1.01-5.79
				c-0.58-0.67-1.48-1.1-2.58-1.1S388.79,310.03,388.21,310.69z"/>
			<path class="st2" d="M417.74,326.8h-3.56l-8.2-12.6v12.6h-4.03v-20.63h3.59l8.17,12.6v-12.6h4.03V326.8z"/>
			<path class="st2" d="M429.89,318.37v8.43h-4.03v-8.43l-6.17-12.2h4.38l3.85,8.32l3.8-8.32h4.38L429.89,318.37z"/>
			<path class="st2" d="M456.67,308.4l-2.55,2.52c-1.1-1.1-2.35-1.42-4.23-1.42c-2.14,0-3.19,1.19-3.19,2.61
				c0,0.55,0.17,1.07,0.61,1.48c0.41,0.38,1.01,0.67,1.88,0.78l2.46,0.38c1.88,0.26,3.04,0.75,3.94,1.62
				c1.1,1.04,1.59,2.49,1.59,4.35c0,4-3.3,6.26-7.65,6.26c-3.13,0-5.5-0.67-7.53-2.72l2.61-2.61c1.3,1.3,3.07,1.74,4.96,1.74
				c2.41,0,3.68-0.93,3.68-2.58c0-0.7-0.2-1.27-0.64-1.71c-0.41-0.38-0.87-0.55-1.85-0.7l-2.46-0.38c-1.74-0.26-3.07-0.81-4-1.71
				c-0.99-0.96-1.48-2.32-1.48-4.06c0-3.68,2.72-6.26,7.19-6.26C452.84,306,454.9,306.69,456.67,308.4z M450.93,304.17h-2.52
				l1.85-4.93h3.97L450.93,304.17z"/>
			<path class="st2" d="M468.49,306.17c4.23,0,6.69,2.87,6.69,6.32c0,2.9-1.77,4.72-3.77,5.42l4.61,8.9h-4.67l-4.03-8.23h-2.9v8.23
				h-4.03v-20.63H468.49z M464.43,309.77v5.42h3.83c1.77,0,2.9-1.1,2.9-2.72c0-1.59-1.13-2.7-2.9-2.7H464.43z"/>
			<path class="st2" d="M490.95,308.17c2.06,2.03,2.09,4.38,2.09,8.32s-0.03,6.29-2.09,8.32c-1.42,1.39-3.16,2.17-5.54,2.17
				s-4.11-0.78-5.53-2.17c-2.06-2.06-2.09-4.38-2.09-8.32s0.03-6.26,2.09-8.32c1.42-1.39,3.16-2.17,5.53-2.17
				S489.53,306.78,490.95,308.17z M482.84,310.69c-0.78,0.87-1.01,1.85-1.01,5.79s0.23,4.9,1.01,5.77c0.58,0.67,1.48,1.13,2.58,1.13
				c1.1,0,2-0.46,2.58-1.13c0.78-0.87,1.01-1.83,1.01-5.77s-0.23-4.93-1.01-5.79c-0.58-0.67-1.48-1.1-2.58-1.1
				C484.32,309.59,483.42,310.03,482.84,310.69z"/>
			<path class="st2" d="M504.02,306.17c2.81,0,4.81,1.04,6.23,3.01c1.27,1.77,1.3,3.88,1.3,7.3s-0.03,5.53-1.3,7.3
				c-1.42,1.97-3.42,3.01-6.23,3.01h-7.45v-20.63H504.02z M500.6,309.77v13.45h3.07c1.36,0,2.35-0.43,3.01-1.28
				c0.75-0.9,0.84-2.17,0.84-5.45c0-3.25-0.09-4.55-0.84-5.45c-0.67-0.84-1.65-1.28-3.01-1.28H500.6z"/>
			<path class="st2" d="M527.56,308.17c2.06,2.03,2.09,4.38,2.09,8.32s-0.03,6.29-2.09,8.32c-1.42,1.39-3.16,2.17-5.54,2.17
				s-4.11-0.78-5.53-2.17c-2.06-2.06-2.09-4.38-2.09-8.32s0.03-6.26,2.09-8.32c1.42-1.39,3.16-2.17,5.53-2.17
				S526.14,306.78,527.56,308.17z M519.44,310.69c-0.78,0.87-1.01,1.85-1.01,5.79s0.23,4.9,1.01,5.77c0.58,0.67,1.48,1.13,2.58,1.13
				c1.1,0,2-0.46,2.58-1.13c0.78-0.87,1.01-1.83,1.01-5.77s-0.23-4.93-1.01-5.79c-0.58-0.67-1.48-1.1-2.58-1.1
				C520.92,309.59,520.02,310.03,519.44,310.69z"/>
			<path class="st2" d="M550.6,326.8h-3.39l-3.8-12.49l-3.77,12.49h-3.36l-5.53-20.63h4.2l3.19,12.98l3.8-12.98h2.99l3.8,12.98
				l3.19-12.98h4.2L550.6,326.8z"/>
			<path class="st2" d="M562.14,326.8h-4.03v-20.63h4.03V326.8z"/>
			<path class="st2" d="M579.21,308.4l-2.55,2.52c-1.1-1.1-2.35-1.42-4.23-1.42c-2.14,0-3.19,1.19-3.19,2.61
				c0,0.55,0.17,1.07,0.61,1.48c0.41,0.38,1.01,0.67,1.88,0.78l2.46,0.38c1.88,0.26,3.04,0.75,3.94,1.62
				c1.1,1.04,1.59,2.49,1.59,4.35c0,4-3.3,6.26-7.65,6.26c-3.13,0-5.5-0.67-7.53-2.72l2.61-2.61c1.3,1.3,3.07,1.74,4.96,1.74
				c2.41,0,3.68-0.93,3.68-2.58c0-0.7-0.2-1.27-0.64-1.71c-0.41-0.38-0.87-0.55-1.85-0.7l-2.46-0.38c-1.74-0.26-3.07-0.81-4-1.71
				c-0.99-0.96-1.48-2.32-1.48-4.06c0-3.68,2.72-6.26,7.19-6.26C575.38,306,577.44,306.69,579.21,308.4z"/>
			<path class="st2" d="M592.36,314.37l7.33,12.43h-4.72l-5.3-9.39l-2.7,3.19v6.2h-4.03v-20.63h4.03v8.98l7.3-8.98h4.93
				L592.36,314.37z"/>
			<path class="st2" d="M618.27,326.8h-4.23l-1.22-3.65h-7.3l-1.25,3.65h-4.23l7.53-20.63h3.16L618.27,326.8z M606.62,319.76h5.07
				l-2.52-7.48L606.62,319.76z"/>
			<path class="st2" d="M314.5,343.83h-3.85v-3.07h3.85V343.83z M314.48,361.5h-3.77v-14.66h3.77V361.5z"/>
			<path class="st2" d="M339.19,347.31h-4.06c-0.46-1.97-1.65-3.01-3.71-3.01c-1.1,0-1.97,0.43-2.55,1.1
				c-0.78,0.87-1.01,1.85-1.01,5.79s0.23,4.96,1.01,5.82c0.58,0.67,1.45,1.07,2.55,1.07c1.25,0,2.23-0.43,2.87-1.16
				c0.67-0.75,0.93-1.68,0.93-2.75v-0.75h-3.8v-3.39h7.79v3.01c0,2.98-0.52,4.75-1.97,6.29c-1.65,1.71-3.62,2.35-5.82,2.35
				c-2.35,0-4.09-0.78-5.51-2.17c-2.06-2.06-2.09-4.38-2.09-8.32s0.03-6.26,2.09-8.32c1.42-1.39,3.16-2.17,5.51-2.17
				C336.24,340.7,338.67,343.83,339.19,347.31z"/>
			<path class="st2" d="M355.22,342.87c2.06,2.03,2.09,4.38,2.09,8.32s-0.03,6.29-2.09,8.32c-1.42,1.39-3.16,2.17-5.53,2.17
				s-4.11-0.78-5.53-2.17c-2.06-2.06-2.09-4.38-2.09-8.32s0.03-6.26,2.09-8.32c1.42-1.39,3.16-2.17,5.53-2.17
				S353.8,341.48,355.22,342.87z M347.11,345.39c-0.78,0.87-1.01,1.85-1.01,5.79s0.23,4.9,1.01,5.77c0.58,0.67,1.48,1.13,2.58,1.13
				s2-0.46,2.58-1.13c0.78-0.87,1.01-1.83,1.01-5.77s-0.23-4.93-1.01-5.79c-0.58-0.67-1.48-1.1-2.58-1.1
				S347.69,344.73,347.11,345.39z"/>
			<path class="st2" d="M373.66,343.1l-2.55,2.52c-1.1-1.1-2.35-1.42-4.23-1.42c-2.14,0-3.19,1.19-3.19,2.61
				c0,0.55,0.17,1.07,0.61,1.48c0.41,0.38,1.01,0.67,1.88,0.78l2.46,0.38c1.88,0.26,3.04,0.75,3.94,1.62
				c1.1,1.04,1.59,2.49,1.59,4.35c0,4-3.3,6.26-7.65,6.26c-3.13,0-5.51-0.67-7.53-2.72l2.61-2.61c1.3,1.3,3.07,1.74,4.96,1.74
				c2.41,0,3.68-0.93,3.68-2.58c0-0.7-0.2-1.27-0.64-1.71c-0.41-0.38-0.87-0.55-1.85-0.7l-2.46-0.38c-1.74-0.26-3.07-0.81-4-1.71
				c-0.99-0.96-1.48-2.32-1.48-4.06c0-3.68,2.72-6.26,7.19-6.26C369.83,340.7,371.89,341.39,373.66,343.1z"/>
			<path class="st2" d="M385.4,340.87c4.29,0,6.81,2.93,6.81,6.43s-2.52,6.43-6.81,6.43h-3.97v7.77h-4.03v-20.63H385.4z
				 M381.43,344.47v5.68h3.77c1.83,0,2.98-1.16,2.98-2.84c0-1.71-1.16-2.84-2.98-2.84H381.43z"/>
			<path class="st2" d="M407.48,342.87c2.06,2.03,2.09,4.38,2.09,8.32s-0.03,6.29-2.09,8.32c-1.42,1.39-3.16,2.17-5.53,2.17
				c-2.38,0-4.11-0.78-5.53-2.17c-2.06-2.06-2.09-4.38-2.09-8.32s0.03-6.26,2.09-8.32c1.42-1.39,3.16-2.17,5.53-2.17
				C404.32,340.7,406.06,341.48,407.48,342.87z M399.37,345.39c-0.78,0.87-1.01,1.85-1.01,5.79s0.23,4.9,1.01,5.77
				c0.58,0.67,1.48,1.13,2.58,1.13s2-0.46,2.58-1.13c0.78-0.87,1.01-1.83,1.01-5.77s-0.23-4.93-1.01-5.79
				c-0.58-0.67-1.48-1.1-2.58-1.1S399.95,344.73,399.37,345.39z"/>
			<path class="st2" d="M420.55,340.87c2.81,0,4.81,1.04,6.23,3.01c1.27,1.77,1.3,3.88,1.3,7.3s-0.03,5.53-1.3,7.3
				c-1.42,1.97-3.42,3.01-6.23,3.01h-7.45v-20.63H420.55z M417.13,344.47v13.45h3.07c1.36,0,2.35-0.43,3.01-1.28
				c0.75-0.9,0.84-2.17,0.84-5.45c0-3.25-0.09-4.55-0.84-5.45c-0.67-0.84-1.65-1.28-3.01-1.28H417.13z"/>
			<path class="st2" d="M447.27,361.5h-4.23l-1.22-3.65h-7.3l-1.25,3.65h-4.23l7.53-20.63h3.16L447.27,361.5z M435.62,354.46h5.07
				l-2.52-7.48L435.62,354.46z"/>
			<path class="st2" d="M457.3,340.87c4.23,0,6.69,2.87,6.69,6.32c0,2.9-1.77,4.72-3.77,5.42l4.61,8.9h-4.67l-4.03-8.23h-2.9v8.23
				h-4.03v-20.63H457.3z M453.25,344.47v5.42h3.83c1.77,0,2.9-1.1,2.9-2.72c0-1.59-1.13-2.7-2.9-2.7H453.25z"/>
			<path class="st2" d="M477.01,349.07l7.33,12.43h-4.72l-5.3-9.39l-2.7,3.19v6.2h-4.03v-20.63h4.03v8.98l7.3-8.98h4.93
				L477.01,349.07z"/>
			<path class="st2" d="M490.34,361.5h-4.03v-20.63h4.03V361.5z"/>
			<path class="st2" d="M518.37,361.5h-3.39l-3.8-12.49l-3.77,12.49h-3.36l-5.53-20.63h4.2l3.19,12.98l3.8-12.98h2.99l3.8,12.98
				l3.19-12.98h4.2L518.37,361.5z"/>
			<path class="st2" d="M538.14,342.87c2.06,2.03,2.09,4.38,2.09,8.32s-0.03,6.29-2.09,8.32c-1.42,1.39-3.16,2.17-5.54,2.17
				s-4.11-0.78-5.53-2.17c-2.06-2.06-2.09-4.38-2.09-8.32s0.03-6.26,2.09-8.32c1.42-1.39,3.16-2.17,5.53-2.17
				S536.72,341.48,538.14,342.87z M530.02,345.39c-0.78,0.87-1.01,1.85-1.01,5.79s0.23,4.9,1.01,5.77c0.58,0.67,1.48,1.13,2.58,1.13
				c1.1,0,2-0.46,2.58-1.13c0.78-0.87,1.01-1.83,1.01-5.77s-0.23-4.93-1.01-5.79c-0.58-0.67-1.48-1.1-2.58-1.1
				C531.5,344.29,530.6,344.73,530.02,345.39z"/>
			<path class="st2" d="M551.21,340.87c2.81,0,4.81,1.04,6.23,3.01c1.27,1.77,1.3,3.88,1.3,7.3s-0.03,5.53-1.3,7.3
				c-1.42,1.97-3.42,3.01-6.23,3.01h-7.45v-20.63H551.21z M547.79,344.47v13.45h3.07c1.36,0,2.35-0.43,3.01-1.28
				c0.75-0.9,0.84-2.17,0.84-5.45c0-3.25-0.09-4.55-0.84-5.45c-0.67-0.84-1.65-1.28-3.01-1.28H547.79z"/>
			<path class="st2" d="M578.07,361.5h-3.56l-8.2-12.6v12.6h-4.03v-20.63h3.59l8.17,12.6v-12.6h4.03V361.5z"/>
			<path class="st2" d="M595.93,344.47h-9.56v4.84h8.17v3.59h-8.17v5.01h9.56v3.59h-13.59v-20.63h13.59V344.47z"/>
			<path class="st2" d="M609.7,354.72c0,4.58-3.42,6.95-7.27,6.95c-2.23,0-3.77-0.58-5.3-2.12l2.67-2.64c0.7,0.7,1.3,1.16,2.64,1.16
				c2,0,3.25-1.16,3.25-3.54v-13.68h4.03V354.72z"/>
		</g>
		<g>
			<path class="st2" d="M318.08,233.77c2.32,0,4.03,0.67,5.42,2.17c1.83,1.97,1.83,4.98,1.83,8.14c0,3.16,0,6.17-1.83,8.14
				c-1.39,1.51-3.1,2.17-5.42,2.17h-7.07v-20.63H318.08z M313.21,235.74v16.69h4.49c1.56,0,3.01-0.35,4.06-1.51
				c1.33-1.42,1.36-3.97,1.36-6.84s-0.03-5.42-1.36-6.84c-1.04-1.16-2.49-1.51-4.06-1.51H313.21z"/>
			<path class="st2" d="M338.71,241.6c1.45,1.45,1.74,3.48,1.74,5.68c0,2.2-0.29,4.2-1.74,5.68c-0.99,1.01-2.35,1.62-4.09,1.62
				s-3.1-0.61-4.09-1.62c-1.45-1.48-1.74-3.48-1.74-5.68c0-2.2,0.29-4.23,1.74-5.68c0.98-1.01,2.35-1.62,4.09-1.62
				S337.73,240.58,338.71,241.6z M332.05,242.87c-1.04,1.04-1.16,2.78-1.16,4.4c0,1.59,0.09,3.33,1.16,4.4
				c0.7,0.7,1.56,1.04,2.58,1.04s1.91-0.35,2.61-1.04c1.04-1.07,1.13-2.81,1.13-4.4c0-1.62-0.09-3.36-1.13-4.4
				c-0.7-0.7-1.59-1.04-2.61-1.04S332.74,242.17,332.05,242.87z"/>
			<path class="st2" d="M349.93,235.54h-1.13c-1.33,0-1.91,0.78-1.91,2.09v2.52h3.04v1.59h-3.04v12.66h-2.09v-12.66h-1.83v-1.59
				h1.83v-2.58c0-2.12,1.19-3.82,3.62-3.82h1.51V235.54z"/>
			<path class="st2" d="M355.09,236.09h-2.35v-2.35h2.35V236.09z M354.94,254.4h-2.09v-14.26h2.09V254.4z"/>
			<path class="st2" d="M369.38,241.31c1.01,0.98,1.48,2.35,1.48,4v9.1h-2.09v-8.78c0-2.52-1.36-3.8-3.51-3.8s-3.56,1.3-3.56,3.8
				v8.78h-2.09v-14.26h2.06v1.59c1.01-1.16,2.43-1.77,4.03-1.77C367.23,239.97,368.51,240.44,369.38,241.31z"/>
			<path class="st2" d="M385.52,244.72v9.68h-2.09v-1.36c-1.13,1.13-2.2,1.54-4.11,1.54c-1.97,0-3.04-0.35-4.03-1.3
				c-0.72-0.7-1.07-1.77-1.07-2.9c0-2.52,1.77-4.11,4.95-4.11h4.26v-1.36c0-2.06-1.01-3.13-3.65-3.13c-1.8,0-2.72,0.46-3.59,1.65
				l-1.42-1.3c1.25-1.65,2.69-2.14,5.04-2.14C383.67,239.97,385.52,241.65,385.52,244.72z M379.46,247.83
				c-2.14,0-3.22,0.84-3.22,2.52c0,1.65,1.01,2.43,3.3,2.43c1.19,0,2.23-0.12,3.16-0.96c0.49-0.46,0.72-1.27,0.72-2.46v-1.54H379.46
				z"/>
			<path class="st2" d="M399.78,241.31c1.01,0.98,1.48,2.35,1.48,4v9.1h-2.09v-8.78c0-2.52-1.36-3.8-3.51-3.8s-3.56,1.3-3.56,3.8
				v8.78h-2.09v-14.26h2.06v1.59c1.01-1.16,2.43-1.77,4.03-1.77C397.63,239.97,398.91,240.44,399.78,241.31z"/>
			<path class="st2" d="M415.4,241.51l-1.36,1.36c-1.01-0.78-2.32-1.13-3.8-1.13c-2.09,0-3.19,0.87-3.19,2.35
				c0,1.27,0.78,1.91,2.55,2.09l2.23,0.2c2.49,0.23,4.2,1.16,4.2,3.85c0,2.75-2.32,4.35-5.79,4.35c-2.43,0-4.32-0.55-5.85-2.06
				l1.39-1.39c1.1,1.16,2.67,1.65,4.43,1.65c2.38,0,3.8-0.84,3.8-2.52c0-1.27-0.7-1.94-2.38-2.09l-2.35-0.2
				c-2.78-0.23-4.26-1.45-4.26-3.83c0-2.61,2.17-4.17,5.25-4.17C412.33,239.97,414.1,240.47,415.4,241.51z"/>
			<path class="st2" d="M428.7,241.6c1.45,1.45,1.74,3.48,1.74,5.68c0,2.2-0.29,4.2-1.74,5.68c-0.99,1.01-2.35,1.62-4.09,1.62
				s-3.1-0.61-4.09-1.62c-1.45-1.48-1.74-3.48-1.74-5.68c0-2.2,0.29-4.23,1.74-5.68c0.99-1.01,2.35-1.62,4.09-1.62
				S427.72,240.58,428.7,241.6z M422.04,242.87c-1.04,1.04-1.16,2.78-1.16,4.4c0,1.59,0.09,3.33,1.16,4.4
				c0.7,0.7,1.57,1.04,2.58,1.04c1.01,0,1.91-0.35,2.61-1.04c1.04-1.07,1.13-2.81,1.13-4.4c0-1.62-0.09-3.36-1.13-4.4
				c-0.7-0.7-1.59-1.04-2.61-1.04C423.6,241.83,422.73,242.17,422.04,242.87z"/>
			<path class="st2" d="M431.89,240.15h2.26l3.3,11.45l3.71-11.45h1.83l3.68,11.45l3.3-11.45h2.26l-4.52,14.26h-1.94l-3.71-11.62
				l-3.71,11.62h-1.91L431.89,240.15z"/>
			<path class="st2" d="M464.61,244.72v9.68h-2.09v-1.36c-1.13,1.13-2.2,1.54-4.11,1.54c-1.97,0-3.04-0.35-4.03-1.3
				c-0.72-0.7-1.07-1.77-1.07-2.9c0-2.52,1.77-4.11,4.96-4.11h4.26v-1.36c0-2.06-1.01-3.13-3.65-3.13c-1.8,0-2.72,0.46-3.59,1.65
				l-1.42-1.3c1.25-1.65,2.7-2.14,5.04-2.14C462.76,239.97,464.61,241.65,464.61,244.72z M458.56,247.83
				c-2.14,0-3.22,0.84-3.22,2.52c0,1.65,1.01,2.43,3.3,2.43c1.19,0,2.23-0.12,3.16-0.96c0.49-0.46,0.72-1.27,0.72-2.46v-1.54H458.56
				z"/>
			<path class="st2" d="M478.87,241.31c1.01,0.98,1.48,2.35,1.48,4v9.1h-2.09v-8.78c0-2.52-1.36-3.8-3.51-3.8
				c-2.14,0-3.56,1.3-3.56,3.8v8.78h-2.09v-14.26h2.06v1.59c1.01-1.16,2.43-1.77,4.03-1.77C476.73,239.97,478,240.44,478.87,241.31z
				"/>
			<path class="st2" d="M494,241.6c1.45,1.45,1.74,3.48,1.74,5.68c0,2.2-0.29,4.2-1.74,5.68c-0.99,1.01-2.35,1.62-4.09,1.62
				s-3.1-0.61-4.09-1.62c-1.45-1.48-1.74-3.48-1.74-5.68c0-2.2,0.29-4.23,1.74-5.68c0.99-1.01,2.35-1.62,4.09-1.62
				S493.02,240.58,494,241.6z M487.34,242.87c-1.04,1.04-1.16,2.78-1.16,4.4c0,1.59,0.09,3.33,1.16,4.4c0.7,0.7,1.57,1.04,2.58,1.04
				c1.01,0,1.91-0.35,2.61-1.04c1.04-1.07,1.13-2.81,1.13-4.4c0-1.62-0.09-3.36-1.13-4.4c-0.7-0.7-1.59-1.04-2.61-1.04
				C488.9,241.83,488.03,242.17,487.34,242.87z"/>
			<path class="st2" d="M505.11,252.69l7.88-10.69h-7.45v-1.85h9.91v1.71l-7.91,10.69h7.91v1.85h-10.34V252.69z"/>
			<path class="st2" d="M529.8,246.9v0.93h-9.62c0,3.13,1.45,4.93,4.2,4.93c1.65,0,2.61-0.49,3.74-1.62l1.42,1.25
				c-1.45,1.45-2.81,2.2-5.22,2.2c-3.8,0-6.23-2.26-6.23-7.3c0-4.64,2.23-7.3,5.85-7.3C527.65,239.97,529.8,242.61,529.8,246.9z
				 M520.61,243.88c-0.35,0.75-0.38,1.22-0.43,2.38h7.56c-0.09-1.16-0.12-1.62-0.46-2.38c-0.61-1.3-1.8-2.14-3.33-2.14
				S521.22,242.58,520.61,243.88z"/>
			<path class="st2" d="M549.94,241.51l-1.36,1.36c-1.01-0.78-2.32-1.13-3.8-1.13c-2.09,0-3.19,0.87-3.19,2.35
				c0,1.27,0.78,1.91,2.55,2.09l2.23,0.2c2.49,0.23,4.2,1.16,4.2,3.85c0,2.75-2.32,4.35-5.79,4.35c-2.43,0-4.32-0.55-5.85-2.06
				l1.39-1.39c1.1,1.16,2.67,1.65,4.43,1.65c2.38,0,3.8-0.84,3.8-2.52c0-1.27-0.7-1.94-2.38-2.09l-2.35-0.2
				c-2.78-0.23-4.26-1.45-4.26-3.83c0-2.61,2.17-4.17,5.24-4.17C546.87,239.97,548.64,240.47,549.94,241.51z M545.88,237.19h-2
				l2.64-4.43h2.41L545.88,237.19z"/>
			<path class="st2" d="M563.59,241.31l-1.54,1.56c-0.78-0.78-1.36-1.04-2.46-1.04c-2.09,0-3.42,1.65-3.42,3.82v8.75h-2.09v-14.26
				h2.09v1.74c0.78-1.19,2.35-1.91,4-1.91C561.53,239.97,562.58,240.29,563.59,241.31z"/>
			<path class="st2" d="M574,241.6c1.45,1.45,1.74,3.48,1.74,5.68c0,2.2-0.29,4.2-1.74,5.68c-0.99,1.01-2.35,1.62-4.09,1.62
				s-3.1-0.61-4.09-1.62c-1.45-1.48-1.74-3.48-1.74-5.68c0-2.2,0.29-4.23,1.74-5.68c0.99-1.01,2.35-1.62,4.09-1.62
				S573.01,240.58,574,241.6z M567.33,242.87c-1.04,1.04-1.16,2.78-1.16,4.4c0,1.59,0.09,3.33,1.16,4.4c0.7,0.7,1.57,1.04,2.58,1.04
				c1.01,0,1.91-0.35,2.61-1.04c1.04-1.07,1.13-2.81,1.13-4.4c0-1.62-0.09-3.36-1.13-4.4c-0.7-0.7-1.59-1.04-2.61-1.04
				C568.9,241.83,568.03,242.17,567.33,242.87z"/>
			<path class="st2" d="M590.2,254.4h-2.09v-1.68c-1.19,1.48-2.43,1.85-4.03,1.85c-1.48,0-2.72-0.49-3.48-1.25
				c-1.42-1.42-1.74-3.77-1.74-6.06c0-2.29,0.32-4.61,1.74-6.06c0.75-0.75,2-1.25,3.48-1.25c1.56,0,2.84,0.38,4.03,1.85v-8.06h2.09
				V254.4z M580.95,247.27c0,2.78,0.46,5.45,3.56,5.45c3.13,0,3.59-2.67,3.59-5.45s-0.46-5.45-3.59-5.45
				C581.42,241.83,580.95,244.49,580.95,247.27z"/>
			<path class="st2" d="M596.92,247.56l6.43-7.42h2.61l-4.84,5.45l5.68,8.81h-2.58l-4.52-7.3l-2.78,3.19v4.11h-2.09v-20.63h2.09
				V247.56z"/>
			<path class="st2" d="M617.79,241.6c1.45,1.45,1.74,3.48,1.74,5.68c0,2.2-0.29,4.2-1.74,5.68c-0.99,1.01-2.35,1.62-4.09,1.62
				s-3.1-0.61-4.09-1.62c-1.45-1.48-1.74-3.48-1.74-5.68c0-2.2,0.29-4.23,1.74-5.68c0.99-1.01,2.35-1.62,4.09-1.62
				S616.8,240.58,617.79,241.6z M611.12,242.87c-1.04,1.04-1.16,2.78-1.16,4.4c0,1.59,0.09,3.33,1.16,4.4
				c0.7,0.7,1.57,1.04,2.58,1.04c1.01,0,1.91-0.35,2.61-1.04c1.04-1.07,1.13-2.81,1.13-4.4c0-1.62-0.09-3.36-1.13-4.4
				c-0.7-0.7-1.59-1.04-2.61-1.04C612.69,241.83,611.82,242.17,611.12,242.87z M614.81,237.19h-2l2.64-4.43h2.41L614.81,237.19z"/>
			<path class="st2" d="M620.98,240.15h2.26l3.3,11.45l3.71-11.45h1.83l3.68,11.45l3.3-11.45h2.26l-4.52,14.26h-1.94l-3.71-11.62
				l-3.71,11.62h-1.91L620.98,240.15z"/>
		</g>
	</g>
</g>
</svg>
